<?xml version="1.0" encoding="UTF-8" standalone="no"?>
<svg
   id="Layer_1"
   version="1.1"
   viewBox="0 0 600 149.99999"
   width="600"
   height="150"
   xmlns="http://www.w3.org/2000/svg"
   xmlns:svg="http://www.w3.org/2000/svg">
  <!-- Generator: Adobe Illustrator 29.8.1, SVG Export Plug-In . SVG Version: 2.1.1 Build 2)  -->
  <defs
     id="defs1">
    <style
       id="style1">
      .st0 {
        fill: #231f20;
      }

      .st1 {
        fill: #e9577f;
      }
    </style>
  </defs>
  <path
     class="st0"
     d="m 81.047313,75.052601 c 0,23.15834 -18.161825,41.819149 -40.472746,41.819149 C 18.263647,116.87175 0,98.210941 0,75.052601 0,51.894264 18.161825,33.128248 40.574567,33.128248 c 22.412743,0 40.472746,18.766016 40.472746,41.924353 z m -8.183636,0 c 0,-18.437247 -14.445462,-33.468473 -32.28911,-33.468473 -17.843647,0 -32.3909256,15.031226 -32.3909256,33.468473 0,18.43725 14.4454566,33.363269 32.3909256,33.363269 17.94546,0 32.28911,-14.926019 32.28911,-33.363269 z m -8.183646,0 c 0,13.71616 -10.83091,24.90738 -24.105464,24.90738 -13.274553,0 -24.220017,-11.19122 -24.220017,-24.90738 0,-13.716146 10.945464,-25.025737 24.220017,-25.025737 13.274554,0 24.105464,11.30959 24.105464,25.025737 z m -8.170914,0 c 0,-9.218617 -7.114548,-16.569847 -15.93455,-16.569847 -8.820001,0 -16.036372,7.35123 -16.036372,16.569847 0,9.21863 7.114549,16.46464 16.036372,16.46464 8.921824,0 15.93455,-7.35123 15.93455,-16.46464 z"
     id="path1"
     style="stroke-width:1.29373" />
  <path
     class="st0"
     d="m 103.25415,88.910382 h 79.09559 V 116.85997 H 94.325546 v -9.31652 H 173.53087 V 98.226922 H 94.325546 V 33.140028 h 26.785804 v 46.582644 h -8.9286 V 42.456547 h -8.9286 v 46.468155 z"
     id="path2"
     style="stroke-width:1.401" />
  <path
     class="st1"
     d="m 257.31897,79.599821 15.56675,27.985969 h 10.30012 C 280.8954,103.75974 259.14308,64.897544 257.31897,61.071514 l -22.43808,40.653416 -8.35257,15.1895 h -30.90035 c 1.7144,-2.99491 13.27632,-24.030939 24.38563,-44.250166 6.52844,-11.83635 13.74264,-25.120009 21.86204,-39.578696 h 10.30012 l -21.286,38.503956 -19.80476,35.996266 h 10.30012 c 14.08552,-25.951138 22.89068,-41.255265 35.94755,-65.171581 0.79549,1.432982 41.09077,74.385581 41.32392,74.500221 h -30.90036 l -15.56676,-27.985948 5.15692,-9.32864 z"
     id="path3"
     style="stroke-width:1.40192" />
  <path
     class="st0"
     d="m 399.50641,61.073504 h -60.78579 v 9.32732 h 45.0956 v 9.327308 H 329.79203 V 51.746195 h 60.78578 v -9.32731 h -69.71439 v 65.162245 h 8.92861 V 88.926501 h 8.92859 v 27.981929 h -26.7858 V 33.091568 h 87.57159 z"
     id="path4"
     style="stroke-width:1.40181" />
  <path
     class="st0"
     d="m 499.67047,71.596705 c 0,24.876227 -19.46188,45.324585 -43.50463,45.324585 -24.04276,0 -42.46227,-19.373639 -43.38119,-43.776976 V 33.078708 h 26.20975 v 38.503676 c 0,9.930427 7.6668,17.940677 17.17144,17.940677 9.50464,0 16.82855,-7.78098 17.17144,-17.453477 V 33.078708 h 8.69544 v 38.503676 c 0,14.831147 -11.56192,27.025647 -25.86688,27.025647 -14.30496,0 -25.75716,-11.96523 -25.75716,-26.782046 h -0.10974 v -29.53334 h -8.58572 v 29.891579 c 0.34288,19.617247 15.67649,35.394156 34.45259,35.394156 18.77612,0 34.45261,-16.149479 34.45261,-35.995996 V 33.078708 h 9.03832 v 38.503676 z"
     id="path5"
     style="stroke-width:1.40191" />
  <path
     class="st0"
     d="m 512.9487,33.100249 h 87.57159 v 27.976146 h -21.51915 v -9.32539 h 12.59056 v -9.325371 h -69.7144 v 9.325371 h 30.44776 l -0.10974,55.823375 h 8.9286 V 51.751005 h 8.92861 v 65.148745 h -26.7858 V 61.076395 H 512.9487 Z"
     id="path6"
     style="stroke-width:1.40167" />
</svg>
