<?xml version="1.0" encoding="utf-8"?>
<!-- Generator: Adobe Illustrator 27.5.0, SVG Export Plug-In . SVG Version: 6.00 Build 0)  -->
<svg version="1.1" xmlns="http://www.w3.org/2000/svg" xmlns:xlink="http://www.w3.org/1999/xlink" x="0px" y="0px"
	 viewBox="0 0 750 500" style="enable-background:new 0 0 750 500;" xml:space="preserve">
<g id="BACKGROUND">
	<g>
		<rect x="0.332" y="-0.106" style="fill:#FAE0E6;" width="750" height="500"/>
	</g>
</g>
<g id="OBJECTS">
	<g>
		<path style="fill:#FAE0E6;" d="M126.885,434.887c-56.938,0-103.095,2.397-103.095,5.355c0,2.957,46.157,5.355,103.095,5.355
			s103.095-2.397,103.095-5.355C229.981,437.284,183.823,434.887,126.885,434.887z"/>
		<path style="fill:#FAE0E6;" d="M599.695,437.217c-31.264,0-60.114,0.311-83.331,0.837c-25.999-1.159-67.637-1.91-114.573-1.91
			c-78.789,0-142.66,2.116-142.66,4.726s63.871,4.726,142.66,4.726c37.843,0,72.24-0.488,97.775-1.285
			c25.28,0.792,60.793,1.285,100.129,1.285c76.742,0,138.954-1.876,138.954-4.19C738.649,439.093,676.437,437.217,599.695,437.217z"
			/>
	</g>
	<g>
		<g>
			<g>
				<path style="fill:#A33F59;" d="M319.825,181.238c-1.278-1.507-2.94-2.783-3.63-4.635c-0.799-2.146-0.103-4.522-0.068-6.812
					c0.064-4.161-2.293-8.273-5.916-10.321c-0.996-0.563-2.137-0.986-3.268-0.814c-1.102,0.167-2.104,0.884-3.218,0.84
					c-1.679-0.066-2.746-1.732-3.919-2.935c-2.694-2.763-6.855-3.457-10.713-3.516c-7.16-0.109-14.461,1.529-20.451,5.453
					c-5.99,3.924-10.54,10.269-11.515,17.363c-0.347,2.523-0.247,5.107,0.293,7.596c0.391,1.802,1.151,3.723,2.795,4.558
					c1.358,0.69,3.066,0.506,4.36,1.285c-0.162,0.652-0.431,1.32-0.669,1.911c-1.439,3.572-0.672,7.932,1.901,10.798
					c1.217,1.355,3.058,2.426,4.808,1.921c0.434-0.125,0.846-0.344,1.296-0.381c1.45-0.121,2.328,1.538,2.748,2.93
					c0.42,1.393,1.103,3.081,2.554,3.193c0.913,0.07,1.746-0.586,2.222-1.368c0.477-0.782,0.691-1.691,1.023-2.544
					c1.535-3.942,5.913-6.566,10.113-6.059c2.467,0.297,4.712,1.529,7.102,2.209c3.611,1.027,7.579,0.745,11.008-0.782
					c1.948-0.867,3.881-2.375,4.148-4.49c0.151-1.194-0.239-2.512,0.374-3.548c1.042-1.761,3.719-1.09,5.668-1.713
					c1.914-0.612,3.132-2.664,3.173-4.674C322.081,184.694,321.125,182.771,319.825,181.238z M265.524,196.469l0.44-1.39
					C265.833,195.548,265.685,196.012,265.524,196.469z"/>
			</g>
		</g>
		<g>
			<path style="fill:#EC977B;" d="M295.369,244.538c-4.83,0.97-16.02,12.81-23.69,21.53c-1.55,1.76-2.96,3.39-4.14,4.78
				c-3,3.52-8.61,3.33-11.18-0.51c-5.09-7.62-6.95-21.25-6.95-21.25l6.93-3.46l5.23,6.29l0.12,0.15
				c0.605-1.549,1.22-3.034,1.839-4.489c0.384-0.905,0.77-1.799,1.161-2.671c0.28-0.62,0.57-1.24,0.85-1.84
				c0.05-0.12,0.11-0.23,0.16-0.35c0.23-0.48,0.46-0.96,0.7-1.43c0.58-1.17,1.16-2.3,1.75-3.38c0.3-0.54,0.6-1.08,0.89-1.6
				c1.49-2.61,3.04-4.95,4.65-7.01c0.32-0.42,0.65-0.82,0.97-1.2c0.26-0.31,0.52-0.62,0.78-0.91c0.07-0.07,0.13-0.15,0.2-0.22
				c0.3-0.33,0.6-0.65,0.89-0.96c0.04-0.03,0.07-0.07,0.1-0.1c0.34-0.34,0.67-0.67,1.01-0.98L295.369,244.538z"/>
			<path style="fill:#F6A850;" d="M277.638,224.928c-5.414,5.039-10.23,13.274-14.613,23.834c1.226,2.165,2.313,4.404,3.235,6.716
				c1.659,4.163,7.636,13.489,8.304,17.882c10.867-9.514,24.422-17.751,20.805-28.821L277.638,224.928z"/>
			<g>
				<path style="fill:#130045;" d="M267.909,250.947c-0.08,2.11-0.24,4.28-0.86,6.28c-0.26,0.86-0.61,1.69-1.07,2.47
					c-0.73-2.36-1.92-4.59-3.48-6.52c-0.33-0.4-0.68-0.8-0.93-1.26l0.12,0.15c0.605-1.549,1.22-3.034,1.839-4.489
					c0.384-0.905,0.77-1.799,1.161-2.671c0.28-0.62,0.57-1.24,0.85-1.84c0.05-0.12,0.11-0.23,0.16-0.35l0.01,0.01
					c1.08,1.32,1.81,2.92,2.08,4.61C267.979,248.527,267.949,249.738,267.909,250.947z"/>
			</g>
			<path style="fill:#EC977B;" d="M340.039,197.813c0,0,15.065-1.849,42.119,1.819c4.764,0.646,9.327,2.344,13.39,4.915
				l25.315,16.023l-7.132,8.518l-30.705-11.49l-34.271,4.556L340.039,197.813z"/>
			<path style="fill:#130045;" d="M379.95,216.762c-0.247-4.89,0.723-9.754,2.621-14.255c0.367-0.87,0.734-1.753,1.127-2.623
				c-0.511-0.095-1.024-0.182-1.54-0.252c-27.053-3.668-42.119-1.819-42.119-1.819l8.716,24.342l31.299-4.161
				C380.017,217.583,379.971,217.174,379.95,216.762z"/>
			<path style="fill:#EC977B;" d="M454.669,378.326c0,0-12.642-13.713-34.712-19.284c0,0-35.034-59.494-38.783-64.496
				l-41.997,28.284c0.471,0,36.008,28.628,54.986,43.943c7.753,6.257,16.223,11.57,25.231,15.826l60.345,28.511
				c4.998-1.988,6.648-5.515,4.192-10.928C483.931,400.182,471.597,396.111,454.669,378.326z"/>
			<path style="fill:#F6A850;" d="M406.773,353.381c1.952-2.371,3.758-4.854,5.471-7.4c-10.542-17.816-28.449-47.938-31.07-51.435
				l-41.997,28.284c0.458,0,26.294,29.787,45.597,45.362C390.409,365.429,402.824,358.178,406.773,353.381z"/>
			<path style="fill:#130045;" d="M369.065,333.064c3.862-2.212,7.479-4.717,10.722-7.777c3.042-2.87,5.725-6.096,8.108-9.529
				c1.158-1.668,2.243-3.38,3.282-5.121c-4.951-8.206-8.88-14.593-10.003-16.091l-41.997,28.284c0.232,0,6.96,7.624,16.048,17.172
				C359.928,337.871,364.583,335.632,369.065,333.064z"/>
			<path style="fill:#F6A850;" d="M483.931,400.182c0,0-12.334-4.071-29.261-21.856c0,0-5.626-6.095-15.912-11.809
				c-1.138,6.703-4.457,13.055-9.352,17.774c-0.723,0.697-1.483,1.349-2.269,1.965l52.603,24.853
				C484.737,409.121,486.387,405.595,483.931,400.182z"/>
			<path style="fill:#FFFFFF;" d="M436.661,390.239c1.299-1.85,2.27-3.87,3.258-5.894c1.502-3.077,2.814-6.204,3.897-9.454
				c0.485-1.457,0.929-2.925,1.35-4.4c-1.879-1.291-4.012-2.641-6.409-3.973c-1.138,6.703-4.457,13.055-9.352,17.774
				c-0.723,0.697-1.483,1.349-2.269,1.965l9.247,4.369C436.479,390.495,436.572,390.366,436.661,390.239z"/>
			<path style="fill:#2E7BD5;" d="M373.519,272.078c-7.33,19.41-42.2,27.14-42.2,27.14c-1.25-5.9-3.28-11.53-6.07-16.9
				c-2.46-4.73-5.58-9.09-9.23-12.96c-1.91-2.05-3.99-3.97-6.19-5.74c-1.53-1.23-3.05-2.55-4.54-3.92c0,0,0,0-0.01-0.01
				c-10.39-9.56-19.51-21.89-24.23-29.01c-2.22-3.35-3.46-5.54-3.41-5.75c11.04-12.2,23.67-19.88,37.84-23.18
				c14.85-3.11,24.56-3.934,24.56-3.934l5.28,9.164l3.46,5.25c2.52,3.81,4.23,8.1,5.03,12.59c0.03,0.14,0.06,0.28,0.08,0.42
				c1.15,6.9,2.9,13.69,5.21,20.28c0.62,1.77,1.28,3.52,1.98,5.25L373.519,272.078z"/>
			<path style="fill:#130045;" d="M353.889,225.238c-0.02-0.14-0.05-0.28-0.08-0.42c-0.14-0.783-0.317-1.558-0.511-2.327
				c-0.156,0.067-0.315,0.129-0.467,0.205c-0.935,0.468-1.754,1.133-2.294,2.039c-0.691,1.159-0.829,2.493-0.852,3.816
				c-0.056,3.177,0.562,6.322,1.304,9.397c0.694,2.875,1.379,5.784,2.211,8.622c1.35,4.607,3.706,8.876,6.834,12.514
				c3.204,3.727,7.073,6.755,11.29,9.233l-10.245-17.549c-0.7-1.73-1.36-3.48-1.98-5.25
				C356.789,238.928,355.039,232.137,353.889,225.238z"/>
			<g>
				<g>
					<path style="fill:#F6A850;" d="M320.999,211.768c-0.22,0.39-0.15,0.87-0.09,1.3c1.04,6.87,1.08,13.88,0.11,20.76
						c-5.37,0.71-18.75-1.47-25.65-15.682c-2.971,1.686-8.233,4.905-14.32,12.532c-2.22-3.35-3.46-5.54-3.41-5.75
						c11.04-12.2,23.67-19.88,37.84-23.18c14.85-3.11,24.56-3.934,24.56-3.934l5.28,9.164c-8.01-0.07-16.05,0.91-23.36,4.1
						C321.589,211.238,321.209,211.428,320.999,211.768z"/>
				</g>
			</g>
			<path style="fill:#130045;" d="M365.062,257.596c-0.473,0.548-0.939,1.104-1.426,1.64c-5.838,6.431-12.609,11.96-19.784,16.831
				c-5.399,3.665-11.034,6.962-16.784,10.045c1.868,4.211,3.291,8.577,4.254,13.102c0,0,34.865-7.726,42.195-27.139L365.062,257.596
				z"/>
			<path style="fill:#EC977B;" d="M413.731,227.999c0,0,0.297,7.33,6.735,11.589l3.242,4.894c0.831,1.254,2.796,0.432,2.465-1.035
				c-0.346-1.533-1.749-4.913-3.726-7.722c0,0,11.42,8.447,16.511,9.042c1.065,0.124,1.577-1.288,0.714-1.925l-9.104-6.721
				c0,0,8.958,6.458,13.152,7.222c1.231,0.224,2.011-1.179,1.208-2.139c-1.707-2.039-6.378-4.582-10.695-7.064
				c0,0,5.284,2.858,8.413,3.919c1.301,0.441,2.309-1.158,1.344-2.135c-2.032-2.058-6.867-4.689-12.233-7.429
				c0,0,8.815,3.764,9.707,2.476c0.902-0.849-4.942-4.046-11.638-7.539c-2.119-1.106-4.384-1.913-6.724-2.398l-2.24-0.463
				l-8.19,8.122"/>
			<path style="fill:#EC977B;" d="M238.695,216.503c0.195,2.652,2.5,7.444,4.555,11.981c0,0-2.626-5.419-4.547-8.105
				c-0.797-1.115-2.543-0.409-2.333,0.945c0.442,2.855,2.833,7.822,5.592,13.188c0,0-4.957-8.204-6.432-7.68
				c-1.228,0.163,1.649,6.171,5.043,12.917c0.011,0.021,0.022,0.043,0.032,0.064c1.603,3.164,4.047,5.826,6.919,7.908l1.886,1.368
				l6.905-2.687c0,0,3.258-5.913,1.923-12.162c-0.406-1.898-0.565-3.843-0.49-5.782l0.086-2.223c0.058-1.503-2.017-1.984-2.606-0.6
				c-0.615,1.447-1.45,5.01-1.486,8.444c0,0-4.336-13.527-8.12-16.984c-0.792-0.723-2.032,0.124-1.704,1.145l3.463,10.773
				c0,0-3.499-10.474-6.457-13.544C240.056,214.571,238.603,215.255,238.695,216.503z"/>
			<path style="fill:#130045;" d="M252.131,235.983c-1.145,3.196-1.265,6.699-0.36,9.97c0.171,0.619,1.136,0.356,0.964-0.266
				c-0.861-3.111-0.728-6.401,0.36-9.438C253.312,235.642,252.346,235.381,252.131,235.983z"/>
			<path style="fill:#EC977B;" d="M371.962,388.668c-8.957-16.207-28.198-47.235-46.284-51.482c0,0,28.046-6.148,48.422-17.857
				c18.279-10.504,19.536-36.42,2.401-48.702l-6.118-4.385c-8.069,9.258-40.382,24.809-70.426,51.195
				c-9.698,8.517-11.306,22.77-1.287,30.906l66.453,56.517l0,0c6.162,5.821,1.909,18.677,2.052,18.463
				c0.143-0.214,19.967-17.422,19.967-17.422c-0.983-1.217-2.141-2.307-3.315-3.253C379.017,398.772,374.95,394.074,371.962,388.668
				z"/>
			<path style="fill:#F6A850;" d="M318.051,311.471c3.166,2.2,5.96,4.88,8.705,7.572c2.705,2.652,5.439,5.275,8.031,8.04
				c1.85,1.974,8.236,9.785,9.785,12.009c9.857-2.987,18.507-13.43,29.528-19.763c18.279-10.504,19.536-36.42,2.401-48.702
				l-6.118-4.385c-7.071,8.113-32.758,21.059-59.221,41.892C313.635,308.758,315.968,310.023,318.051,311.471z"/>
			<path style="fill:#F6A850;" d="M383.826,402.647c-4.81-3.876-8.876-8.573-11.864-13.98
				c-5.796-10.488-15.901-27.176-27.211-38.803c-2.318,5.628-5.593,10.934-9.826,15.249c-2.582,2.631-5.59,4.902-9,6.341
				c-0.018,0.008-0.037,0.013-0.055,0.021l39.254,33.384c6.162,5.821,1.909,18.677,2.052,18.463
				c0.143-0.214,19.967-17.422,19.967-17.422C386.159,404.684,385.001,403.593,383.826,402.647z"/>
			<path style="fill:#FFFFFF;" d="M336.53,374.544c5.084-2.983,9.311-7.258,12.502-12.195c0.966-1.494,1.827-3.048,2.609-4.64
				c-2.227-2.765-4.529-5.418-6.89-7.845c-2.318,5.628-5.593,10.934-9.826,15.249c-2.582,2.631-5.59,4.902-9,6.341
				c-0.018,0.008-0.037,0.013-0.055,0.021l6.185,5.26C333.594,376.114,335.092,375.388,336.53,374.544z"/>
			<g>
				<g>
					<g>
						<path style="fill:#EC977B;" d="M315.983,228.376c-8.515-1.786-15.491-5.384-17.844-14.422l-0.888-1.614l-0.422-0.696
							l-3.964-6.314c-0.261-0.503,5.297-4.762,5.297-4.762l0.967-1.881l1.07-2.065l1.237-2.385l1.836-3.54l0.154-0.255l0.612,1.148
							l5.55,8.227l0.019,0.022l1.359,1.948l1.502,2.24C319.467,211.178,315.983,228.376,315.983,228.376z"/>
					</g>
					<g>
						<path style="fill:#130045;" d="M304.943,206.975c-1.285,2.365-3.095,5.082-6.804,6.98l-0.888-1.614l-0.422-0.696l-3.964-6.314
							c-0.261-0.503,5.297-4.762,5.297-4.762l0.967-1.881l1.07-2.065l1.237-2.385C303.292,196.991,307.232,202.722,304.943,206.975z
							"/>
					</g>
				</g>
				<g>
					<g>
						<g>
							<path style="fill:#EC977B;" d="M304.715,174.043c2.315-0.292,4.517,2.145,4.937,5.429c0.372,3.059-0.953,5.745-3.003,6.335
								c0.007,0.03,0.014,0.061,0.008,0.092c0.111,0.761,0.161,1.524,0.181,2.293c0.076,3.433-0.606,6.848-2.074,9.924
								c-0.238,0.501-0.506,0.997-0.787,1.481c-0.216,0.403-0.469,0.795-0.715,1.18c-0.23,0.342-0.478,0.666-0.726,1.015
								c-0.213,0.274-0.426,0.537-0.628,0.762c-0.581,0.687-1.281,1.286-2.069,1.801c-5.09,3.364-11.727,2.66-16.304-1.127
								c-0.756-0.634-1.465-1.344-2.096-2.134c-0.77-0.958-1.486-1.948-2.197-2.981c-0.108-0.162-0.216-0.337-0.331-0.505
								c-0.032-0.054-0.07-0.102-0.102-0.156c-0.051-0.084-0.108-0.162-0.165-0.24c-0.197-0.294-0.376-0.583-0.555-0.896
								c-0.892-1.432-1.72-2.944-2.505-4.489c-0.232-0.459-0.451-0.917-0.677-1.382c-0.445-0.911-0.866-1.823-1.275-2.76
								c-1.865-3.118-1.923-7.774-1.685-10.872c0.165-2.156,0.647-4.307,1.593-6.281c3.712-7.759,10.464-9.497,14.569-9.792
								c2.074-0.151,3.473,0.07,3.473,0.07c7.355-0.391,10.613,10.105,11.062,11.652c0.034,0.128,0.048,0.188,0.048,0.188
								c0.273,0.641,0.509,1.27,0.751,1.869c0.078-0.045,0.169-0.09,0.259-0.135c0.006-0.006,0.006-0.006,0.012-0.013
								C304.017,174.214,304.356,174.083,304.715,174.043z"/>
						</g>
					</g>
					<path style="fill:#130045;" d="M292.923,178.24c-0.022-0.107-0.063-0.21-0.136-0.283c-0.224-0.224-0.541-0.187-0.768,0
						c-2.095,1.726-4.152,3.498-6.17,5.314c-0.029,0.026-0.04,0.056-0.062,0.084c-0.32,0.143-0.516,0.56-0.183,0.86
						c0.203,0.182,0.406,0.364,0.609,0.546c0.218,0.196,0.552,0.217,0.768,0c1.955-1.959,3.919-3.91,5.892-5.852
						C293.09,178.694,293.06,178.432,292.923,178.24z"/>
					<path style="fill:#130045;" d="M273.017,187.376c-0.062-0.09-0.108-0.191-0.109-0.295c-0.006-0.317,0.241-0.519,0.533-0.553
						c2.697-0.309,5.401-0.558,8.109-0.749c0.039-0.003,0.068,0.01,0.103,0.014c0.325-0.131,0.762,0.018,0.746,0.466
						c-0.01,0.273-0.02,0.545-0.03,0.818c-0.011,0.293-0.227,0.548-0.533,0.553c-2.768,0.046-5.535,0.104-8.302,0.174
						C273.227,187.813,273.06,187.609,273.017,187.376z"/>
					<path style="fill:#130045;" d="M297.153,192.226c0.293,1.43,0.097,2.939-0.626,4.218c-0.806,1.426-2.203,2.469-3.789,2.863
						c-0.704,0.174-1.026-0.91-0.316-1.086c2.512-0.623,4.17-3.118,3.645-5.678C295.922,191.835,297.006,191.511,297.153,192.226z"
						/>
					<g>
						<path style="fill:#A33F59;" d="M272.042,190.514c0.408,0.47,1.171,0.003,1.536-0.5c1.633-2.249,1.807-5.195,2.316-7.928
							c0.131-0.7,0.322-1.454,0.884-1.892c0.46-0.358,1.072-0.428,1.634-0.58c1.693-0.458,3.115-1.813,3.654-3.482
							c0.343-1.063,0.347-2.224,0.787-3.25c0.44-1.027,1.586-1.914,2.624-1.501c1.284,0.511,1.586,2.637,2.966,2.706
							c0.866,0.043,1.483-0.803,2.26-1.188c0.858-0.426,1.943-0.247,2.71,0.326c0.768,0.572,1.236,1.486,1.403,2.429
							c0.15,0.844,0.124,1.82,0.752,2.404c0.631,0.587,1.674,0.513,2.326,1.077c0.741,0.641,0.671,1.79,1.015,2.707
							c0.275,0.735,0.873,1.362,1.625,1.587c0.752,0.225,1.641,0.002,2.135-0.608c0.815-1.006,0.347-2.472,0.23-3.762
							c-0.153-1.691,0.416-3.435,1.537-4.71c0.638-0.726,1.465-1.337,1.808-2.24c0.578-1.522-0.434-3.151-1.432-4.438
							c-1.345-1.736-2.756-3.42-4.23-5.048c-1.607-1.775-3.32-3.508-5.415-4.667c-3.33-1.842-7.411-2.06-11.083-1.063
							c-3.672,0.997-6.961,3.13-9.758,5.709c-2.127,1.961-4.019,4.221-5.275,6.827c-1.256,2.606-1.846,5.582-1.348,8.432"/>
					</g>
					<g>
						<path style="fill:#130045;" d="M304.43,177.83c0.148-0.294,0.457-0.479,0.787-0.353c0.284,0.108,0.501,0.491,0.353,0.786
							c-0.757,1.51-0.464,3.247,0.748,4.43c0.235,0.23,0.153,0.665-0.082,0.859c-0.276,0.229-0.622,0.15-0.858-0.081
							C303.892,182.02,303.499,179.686,304.43,177.83z"/>
					</g>
					<g>
						<path style="fill:#130045;" d="M285.141,196.395c-0.768-2.703-1.336-5.48-1.999-8.211c-0.155-0.64,0.828-0.942,0.984-0.297
							l1.613,6.641c0.201,0.827,0.259,2.46,1.369,2.488c1.015,0.026,2.069-0.652,2.788-1.306c0.486-0.442,1.248,0.249,0.759,0.693
							C289.167,197.756,285.944,199.223,285.141,196.395z"/>
					</g>
					<path style="fill:#130045;" d="M292.046,185.134c0.473,0.928,0.346,1.952-0.283,2.289c-0.629,0.337-1.522-0.141-1.994-1.069
						c-0.473-0.927-0.346-1.952,0.283-2.29C290.681,183.728,291.573,184.206,292.046,185.134z"/>
					<g>
						<path style="fill:#130045;" d="M281.99,190.983c0.473,0.928,0.346,1.952-0.283,2.289c-0.629,0.337-1.522-0.141-1.994-1.069
							c-0.473-0.927-0.346-1.952,0.283-2.29C280.625,189.577,281.517,190.055,281.99,190.983z"/>
					</g>
					<g>
						<path style="fill:#130045;" d="M296.252,201.551c0.01-0.004,0.018-0.008,0.023-0.013c-0.001,0-0.002,0.001-0.003,0.001
							C296.268,201.543,296.259,201.547,296.252,201.551z"/>
						<path style="fill:#130045;" d="M295.78,201.927c-0.004,0.005-0.006,0.009-0.009,0.014c0.001,0.002,0.014-0.014,0.022-0.03
							c-0.002,0.002-0.004,0.004-0.006,0.007C295.783,201.923,295.783,201.923,295.78,201.927z"/>
						<path style="fill:#130045;" d="M296.546,201.46c0.058,0.001,0.035-0.007,0.005-0.001c0,0,0,0-0.001,0
							C296.549,201.459,296.547,201.46,296.546,201.46z"/>
					</g>
				</g>
			</g>
			<path style="fill:#130045;" d="M387.217,403.921c-0.924-0.997-1.929-1.951-2.888-2.8c-1.427-1.264-3.503-1.635-5.191-0.751
				c-0.327,0.171-0.589,0.372-0.724,0.604c-0.574,0.984-0.798,2.02-0.857,3.147c-0.052,0.995-0.09,1.979-0.402,2.934
				c-0.541,1.653-1.835,3.523-3.355,4.423c-0.7,0.415-1.442,0.511-2.199,0.188c-0.677-0.289-1.426-1.131-2.214-0.728
				c-0.729,0.372-1.039,0.293-1.696,0.98l-1.554,11.102c-0.096,2.59-1.049,5.037-2.803,6.893c-2.374,2.542-4.198,5.618-5.16,6.893
				c-0.6,0.81-0.302,1.827,0.413,2.404c0.442,0.364,1.063,0.555,1.709,0.399c0.019-0.007,0.048-0.017,0.072-0.014
				c0.26-0.068,0.525-0.126,0.785-0.194c0.357-0.101,0.728-0.196,1.091-0.31c0.569-0.152,1.115-0.33,1.672-0.51
				c0.469-0.151,0.934-0.311,1.399-0.471c3.14-1.126,6.092-2.474,8.412-3.636c3.156-1.593,5.494-4.265,6.624-7.519l2.525-7.214
				c0.557-1.608,1.517-3.036,2.817-4.154c0.672-0.572,1.259-1.136,1.767-1.674c1.429-1.48,2.03-3.465,1.831-5.438
				C389.142,406.858,388.448,405.253,387.217,403.921z"/>
			<g>
				<path style="fill:#130045;" d="M364.83,438.074c-0.043-0.05-0.1-0.083-0.149-0.128c-0.195-0.307-0.494-0.55-0.851-0.655
					c-0.634-0.186-1.296,0.187-1.598,0.743c-0.101,0.188-0.134,0.393-0.136,0.6c-0.035,0.069-0.059,0.145-0.053,0.23
					c0.043,0.616,0.448,1.238,1.041,1.455c0.613,0.224,1.349,0.062,1.763-0.465C365.245,439.349,365.254,438.572,364.83,438.074z"/>
				<path style="fill:#130045;" d="M370.71,436.007c-0.043-0.05-0.1-0.083-0.149-0.128c-0.195-0.307-0.494-0.55-0.851-0.655
					c-0.634-0.186-1.296,0.187-1.597,0.743c-0.102,0.188-0.134,0.393-0.136,0.6c-0.035,0.069-0.059,0.145-0.053,0.23
					c0.043,0.616,0.448,1.238,1.041,1.455c0.613,0.225,1.349,0.062,1.763-0.465C371.125,437.281,371.134,436.504,370.71,436.007z"/>
				<path style="fill:#130045;" d="M375.686,433.45c-0.043-0.05-0.1-0.083-0.149-0.128c-0.195-0.307-0.494-0.55-0.851-0.655
					c-0.634-0.186-1.296,0.187-1.597,0.743c-0.102,0.187-0.134,0.393-0.136,0.6c-0.035,0.069-0.059,0.145-0.053,0.23
					c0.043,0.616,0.448,1.238,1.041,1.455c0.613,0.224,1.349,0.062,1.763-0.465C376.1,434.725,376.11,433.947,375.686,433.45z"/>
				<path style="fill:#130045;" d="M379.447,429.979c-0.043-0.05-0.1-0.083-0.149-0.128c-0.195-0.307-0.494-0.55-0.851-0.655
					c-0.634-0.186-1.296,0.187-1.597,0.743c-0.102,0.187-0.134,0.393-0.136,0.599c-0.035,0.069-0.059,0.145-0.053,0.23
					c0.043,0.616,0.448,1.238,1.041,1.455c0.613,0.224,1.349,0.062,1.763-0.465C379.861,431.254,379.871,430.476,379.447,429.979z"
					/>
				<path style="fill:#130045;" d="M386.009,415.969c-0.043-0.05-0.1-0.083-0.149-0.128c-0.195-0.307-0.494-0.55-0.851-0.655
					c-0.634-0.186-1.296,0.187-1.598,0.743c-0.101,0.187-0.134,0.393-0.136,0.599c-0.035,0.069-0.059,0.145-0.053,0.23
					c0.043,0.616,0.448,1.238,1.041,1.455c0.613,0.224,1.349,0.062,1.763-0.465C386.424,417.243,386.433,416.466,386.009,415.969z"
					/>
				<path style="fill:#130045;" d="M388.734,412.974c-0.043-0.05-0.1-0.083-0.149-0.128c-0.195-0.307-0.494-0.55-0.851-0.655
					c-0.634-0.186-1.296,0.187-1.598,0.743c-0.101,0.188-0.134,0.393-0.136,0.599c-0.035,0.069-0.059,0.145-0.053,0.23
					c0.043,0.616,0.448,1.238,1.041,1.455c0.613,0.224,1.349,0.062,1.763-0.465C389.149,414.249,389.158,413.472,388.734,412.974z"
					/>
				<path style="fill:#130045;" d="M390.766,409.637c-0.043-0.05-0.1-0.083-0.149-0.128c-0.195-0.307-0.494-0.55-0.851-0.655
					c-0.634-0.186-1.296,0.187-1.597,0.743c-0.101,0.188-0.134,0.393-0.136,0.599c-0.035,0.069-0.059,0.145-0.053,0.23
					c0.043,0.616,0.448,1.238,1.041,1.455c0.613,0.224,1.349,0.062,1.763-0.465C391.18,410.912,391.19,410.135,390.766,409.637z"/>
			</g>
			<path style="fill:#130045;" d="M487.881,395.468c-1.316-0.338-2.677-0.596-3.944-0.792c-1.884-0.291-3.83,0.521-4.772,2.178
				c-0.182,0.321-0.294,0.631-0.282,0.9c0.05,1.138,0.422,2.13,0.983,3.11c0.495,0.865,0.996,1.712,1.249,2.685
				c0.44,1.683,0.363,3.955-0.427,5.535c-0.364,0.728-0.936,1.21-1.747,1.348c-0.726,0.123-1.811-0.179-2.256,0.586
				c-0.411,0.707-0.715,0.809-0.895,1.742l4.702,10.177c1.321,2.23,1.844,4.803,1.373,7.313c-0.621,3.422-0.49,6.996-0.608,8.589
				c-0.066,1.006,0.735,1.7,1.648,1.798c0.568,0.067,1.195-0.108,1.652-0.59c0.013-0.016,0.032-0.04,0.053-0.05
				c0.182-0.198,0.373-0.39,0.555-0.588c0.245-0.278,0.506-0.559,0.749-0.851c0.396-0.436,0.759-0.881,1.129-1.334
				c0.313-0.381,0.617-0.767,0.921-1.153c2.031-2.647,3.784-5.377,5.106-7.61c1.791-3.047,2.312-6.56,1.501-9.908l-1.781-7.433
				c-0.402-1.653-0.368-3.374,0.121-5.018c0.256-0.845,0.443-1.637,0.58-2.364c0.4-2.018-0.169-4.012-1.403-5.564
				C491.089,396.895,489.637,395.921,487.881,395.468z"/>
			<g>
				<path style="fill:#130045;" d="M486.229,437.651c-0.062-0.022-0.129-0.021-0.193-0.035c-0.324-0.166-0.705-0.224-1.065-0.134
					c-0.641,0.161-1.023,0.818-1,1.45c0.008,0.213,0.084,0.407,0.187,0.586c0.005,0.077,0.023,0.155,0.071,0.225
					c0.349,0.51,1.014,0.84,1.634,0.727c0.642-0.117,1.194-0.631,1.284-1.294C487.233,438.54,486.847,437.865,486.229,437.651z"/>
				<path style="fill:#130045;" d="M490.251,432.888c-0.062-0.022-0.129-0.021-0.193-0.035c-0.324-0.166-0.705-0.224-1.065-0.134
					c-0.641,0.161-1.023,0.818-1.001,1.45c0.008,0.213,0.084,0.407,0.187,0.586c0.005,0.077,0.023,0.155,0.071,0.225
					c0.349,0.51,1.014,0.84,1.634,0.727c0.642-0.117,1.194-0.63,1.284-1.294C491.254,433.777,490.868,433.102,490.251,432.888z"/>
				<path style="fill:#130045;" d="M493.244,428.163c-0.062-0.022-0.129-0.021-0.193-0.035c-0.324-0.166-0.705-0.224-1.065-0.133
					c-0.641,0.161-1.023,0.818-1,1.45c0.008,0.213,0.084,0.407,0.187,0.586c0.005,0.078,0.023,0.155,0.071,0.225
					c0.349,0.509,1.014,0.84,1.634,0.727c0.642-0.117,1.194-0.63,1.284-1.294C494.248,429.052,493.862,428.377,493.244,428.163z"/>
				<path style="fill:#130045;" d="M494.728,423.265c-0.062-0.022-0.129-0.021-0.193-0.035c-0.324-0.166-0.705-0.224-1.065-0.133
					c-0.641,0.16-1.023,0.818-1,1.45c0.008,0.213,0.084,0.407,0.187,0.586c0.005,0.078,0.023,0.155,0.071,0.225
					c0.349,0.509,1.014,0.84,1.634,0.727c0.642-0.117,1.194-0.631,1.284-1.294C495.731,424.154,495.345,423.479,494.728,423.265z"/>
				<path style="fill:#130045;" d="M493.285,407.861c-0.062-0.022-0.129-0.021-0.193-0.035c-0.324-0.166-0.705-0.224-1.065-0.133
					c-0.641,0.161-1.023,0.818-1,1.45c0.008,0.213,0.084,0.407,0.187,0.585c0.005,0.078,0.023,0.155,0.071,0.225
					c0.349,0.509,1.014,0.84,1.634,0.727c0.642-0.117,1.194-0.63,1.284-1.294C494.289,408.75,493.903,408.075,493.285,407.861z"/>
				<path style="fill:#130045;" d="M494.118,403.899c-0.062-0.022-0.129-0.021-0.193-0.035c-0.324-0.166-0.705-0.224-1.065-0.133
					c-0.641,0.161-1.023,0.818-1,1.45c0.008,0.213,0.084,0.407,0.187,0.585c0.005,0.078,0.023,0.155,0.071,0.225
					c0.349,0.509,1.014,0.84,1.634,0.727c0.643-0.117,1.195-0.63,1.284-1.294C495.121,404.788,494.735,404.113,494.118,403.899z"/>
				<path style="fill:#130045;" d="M494.178,399.993c-0.062-0.022-0.129-0.021-0.193-0.035c-0.324-0.166-0.705-0.224-1.065-0.134
					c-0.641,0.16-1.023,0.818-1.001,1.45c0.008,0.213,0.084,0.407,0.187,0.586c0.005,0.077,0.023,0.154,0.071,0.225
					c0.349,0.51,1.014,0.84,1.634,0.727c0.643-0.117,1.195-0.631,1.284-1.294C495.181,400.882,494.796,400.207,494.178,399.993z"/>
			</g>
			<g>
				<path style="fill:#FFFFFF;" d="M371.28,420.429c-1.961,0.817-4.206,0.669-6.058-0.362c-0.236-0.132-0.558,0.036-0.655,0.266
					c-0.114,0.271,0.03,0.523,0.266,0.655c2.069,1.152,4.642,1.276,6.824,0.367C372.25,421.108,371.875,420.181,371.28,420.429z"/>
				<path style="fill:#FFFFFF;" d="M372.261,424.252c0.234-0.135,0.241-0.507,0.092-0.701c-0.182-0.238-0.466-0.227-0.701-0.092
					c-1.803,1.036-4.206,0.945-5.94-0.189c-0.535-0.35-1.15,0.439-0.61,0.793C367.253,425.468,370.04,425.527,372.261,424.252z"/>
			</g>
			<g>
				<path style="fill:#FFFFFF;" d="M483.819,418.309c-1.355,1.636-3.411,2.55-5.53,2.5c-0.27-0.006-0.477,0.292-0.456,0.541
					c0.025,0.293,0.27,0.449,0.541,0.456c2.367,0.056,4.703-1.031,6.21-2.852C484.994,418.458,484.23,417.813,483.819,418.309z"/>
				<path style="fill:#FFFFFF;" d="M486.467,421.235c0.145-0.228-0.023-0.561-0.245-0.663c-0.272-0.125-0.518,0.016-0.663,0.245
					c-1.113,1.756-3.282,2.795-5.344,2.598c-0.636-0.061-0.814,0.924-0.171,0.985C482.601,424.644,485.095,423.399,486.467,421.235z
					"/>
			</g>
			<path style="fill:#F6A850;" d="M378.21,199.137c-24.562-2.875-38.171-1.324-38.171-1.324c-5.925,9.085,2.874,30.563,14.6,31.489
				l25.034-3.719C370.231,209.41,377.307,201.941,378.21,199.137z"/>
		</g>
		<g>
			<path style="fill:#FFFFFF;" d="M304.561,418.722c0,3.908-0.956,7.601-2.638,10.85c-0.28,0.577-0.61,1.138-0.94,1.682
				c-4.205,6.711-11.641,11.18-20.133,11.18c-2.688,0-5.26-0.445-7.667-1.27c-0.841-0.28-1.665-0.627-2.473-1.006
				c-1.352-0.627-2.622-1.401-3.825-2.275c-0.709-0.511-1.385-1.055-2.028-1.649c-4.749-4.337-7.717-10.586-7.717-17.511
				c0-4.188,1.088-8.113,2.984-11.509c0.313-0.561,0.643-1.121,1.006-1.649c3.215-4.815,8.162-8.393,13.949-9.844
				c0.693-0.181,1.418-0.313,2.144-0.429h0.017c1.171-0.181,2.391-0.28,3.611-0.28c9.762,0,18.154,5.903,21.782,14.329
				c0.28,0.66,0.544,1.336,0.742,2.012C304.149,413.677,304.561,416.15,304.561,418.722z"/>
			<path style="fill:#130045;" d="M304.564,418.725c0,3.9-0.96,7.6-2.64,10.85c-0.28,0.57-0.61,1.13-0.94,1.68
				c-4.21,6.71-11.64,11.18-20.13,11.18c-2.69,0-5.26-0.45-7.67-1.27c-0.84-0.28-1.67-0.63-2.47-1.01c-1.36-0.62-2.63-1.4-3.83-2.27
				c-0.71-0.51-1.39-1.06-2.03-1.65c-1.43-1.31-2.71-2.8-3.78-4.42c0.31,0.32,0.63,0.63,0.96,0.93c0.64,0.6,1.32,1.14,2.03,1.65
				c1.2,0.88,2.47,1.65,3.82,2.28c0.81,0.38,1.64,0.72,2.48,1c2.41,0.83,4.98,1.27,7.67,1.27c8.49,0,15.92-4.46,20.13-11.18
				c0.33-0.54,0.66-1.1,0.94-1.68c1.68-3.25,2.64-6.94,2.64-10.85c0-2.57-0.42-5.04-1.19-7.37c-0.2-0.67-0.46-1.35-0.74-2.01
				c-0.56-1.3-1.24-2.55-2.02-3.72c2.03,2.06,3.68,4.5,4.84,7.2c0.28,0.66,0.54,1.34,0.74,2.02
				C304.144,413.675,304.564,416.145,304.564,418.725z"/>
			<path style="fill:#130045;" d="M303.374,411.352c-0.198-0.676-0.462-1.352-0.742-2.012l-6.678,11.559h-16.637l-8.442-14.609
				l6.348-10.998c-0.725,0.116-1.451,0.247-2.144,0.429l-5.689,9.844h-8.261c-0.363,0.528-0.693,1.088-1.006,1.649h9.267
				l8.376,14.51l-8.376,14.51h-4.534c0.643,0.594,1.319,1.138,2.028,1.649h2.506l1.319,2.275c0.808,0.379,1.632,0.726,2.473,1.006
				l-2.309-4.007l8.442-14.609h16.637l5.029,8.706c0.33-0.544,0.66-1.105,0.94-1.682l-4.534-7.849L303.374,411.352z"/>
		</g>
	</g>
	<g>
		<g>
			<g>
				<path style="fill:#130045;" d="M109.67,419.027h12.712l10.081,4.714c2.959,1.383,6.124,2.251,9.369,2.617
					c3.953,0.445,9.58,1.585,12.501,4.5c1.904,1.9,0.489,5.169-2.201,5.169h-45.055c-1.662,0-3.035-1.328-3.05-2.99
					C103.995,429.661,104.806,423.99,109.67,419.027z"/>
				<g>
					<g>
						<path style="fill:#130045;" d="M151.956,435.072c-0.043-0.05-0.1-0.083-0.149-0.128c-0.195-0.307-0.494-0.55-0.851-0.655
							c-0.634-0.186-1.296,0.187-1.597,0.743c-0.101,0.187-0.134,0.393-0.136,0.599c-0.035,0.069-0.059,0.145-0.053,0.23
							c0.043,0.616,0.448,1.238,1.041,1.455c0.613,0.224,1.349,0.062,1.763-0.465C152.371,436.347,152.38,435.569,151.956,435.072z"
							/>
						<path style="fill:#130045;" d="M147.035,435.072c-0.043-0.05-0.1-0.083-0.149-0.128c-0.195-0.307-0.494-0.55-0.851-0.655
							c-0.634-0.186-1.296,0.187-1.597,0.743c-0.102,0.187-0.134,0.393-0.136,0.599c-0.035,0.069-0.059,0.145-0.053,0.23
							c0.043,0.616,0.448,1.238,1.041,1.455c0.613,0.224,1.349,0.062,1.762-0.465C147.449,436.347,147.459,435.569,147.035,435.072z
							"/>
						<path style="fill:#130045;" d="M142.113,435.072c-0.043-0.05-0.1-0.083-0.149-0.128c-0.195-0.307-0.494-0.55-0.851-0.655
							c-0.634-0.186-1.296,0.187-1.597,0.743c-0.101,0.187-0.134,0.393-0.136,0.599c-0.035,0.069-0.059,0.145-0.053,0.23
							c0.043,0.616,0.448,1.238,1.041,1.455c0.613,0.224,1.349,0.062,1.763-0.465C142.527,436.347,142.537,435.569,142.113,435.072z
							"/>
						<path style="fill:#130045;" d="M137.191,435.072c-0.043-0.05-0.1-0.083-0.149-0.128c-0.195-0.307-0.494-0.55-0.851-0.655
							c-0.634-0.186-1.296,0.187-1.597,0.743c-0.102,0.187-0.134,0.393-0.136,0.599c-0.035,0.069-0.059,0.145-0.053,0.23
							c0.043,0.616,0.448,1.238,1.041,1.455c0.613,0.224,1.349,0.062,1.763-0.465C137.606,436.347,137.615,435.569,137.191,435.072z
							"/>
					</g>
					<g>
						<path style="fill:#130045;" d="M118.666,435.072c-0.043-0.05-0.1-0.083-0.149-0.128c-0.195-0.307-0.494-0.55-0.851-0.655
							c-0.634-0.186-1.296,0.187-1.597,0.743c-0.102,0.187-0.134,0.393-0.136,0.599c-0.035,0.069-0.059,0.145-0.053,0.23
							c0.043,0.616,0.448,1.238,1.041,1.455c0.613,0.224,1.349,0.062,1.763-0.465C119.08,436.347,119.09,435.569,118.666,435.072z"
							/>
						<path style="fill:#130045;" d="M113.744,435.072c-0.043-0.05-0.1-0.083-0.149-0.128c-0.195-0.307-0.494-0.55-0.851-0.655
							c-0.634-0.186-1.296,0.187-1.597,0.743c-0.101,0.187-0.134,0.393-0.136,0.599c-0.035,0.069-0.059,0.145-0.053,0.23
							c0.043,0.616,0.448,1.238,1.041,1.455c0.613,0.224,1.349,0.062,1.763-0.465C114.159,436.347,114.168,435.569,113.744,435.072z
							"/>
						<path style="fill:#130045;" d="M108.823,435.072c-0.043-0.05-0.1-0.083-0.149-0.128c-0.195-0.307-0.494-0.55-0.851-0.655
							c-0.634-0.186-1.296,0.187-1.597,0.743c-0.101,0.187-0.134,0.393-0.136,0.599c-0.035,0.069-0.059,0.145-0.053,0.23
							c0.043,0.616,0.448,1.238,1.041,1.455c0.613,0.224,1.349,0.062,1.763-0.465C109.237,436.347,109.247,435.569,108.823,435.072z
							"/>
					</g>
				</g>
				<path style="fill:#EC977B;" d="M133.409,346.891c-17.685,15.281-14.793,19.121-23.739,72.136c4.271,2.068,8.509,2.102,12.712,0
					c6.844-21.074,18.787-44.626,33.701-69.62c2.225-3.729,2.921-8.177,1.934-12.406c-5.589-23.964-17.625-50.693-32.115-78.473
					l-32.773,11.939L133.409,346.891z"/>
				<path style="fill:#2F8253;" d="M124.349,251.546c0,0,32.972,43.045,34.106,76.582l-27.476,5.768l-32.454-73.892L124.349,251.546
					z"/>
				<path style="fill:#F27670;" d="M137.234,364.171c-5.962-1.038-12.024-0.729-17.794,0.891c-3.415,9.49-4.667,23.728-9.77,53.965
					c4.271,2.068,8.509,2.102,12.712,0c5.251-16.169,13.512-33.8,23.805-52.419C143.277,365.55,140.294,364.704,137.234,364.171z"/>
				<path style="fill:#130045;" d="M130.618,349.37c23.643,8.13,18.061-14.234,26.666-15.323
					c-5.859-23.2-17.484-48.872-31.382-75.518l-32.773,11.939l37.355,70.875C131.059,341.122,130.036,349.17,130.618,349.37z"/>
			</g>
			<g>
				<path style="fill:#130045;" d="M62.832,311.516c0,0-3.486-5.688-7.306-6.303c-5.559-0.896-10.838,2.787-12.129,8.268
					l-0.576,2.444c-0.36,1.531-1.062,2.956-2.069,4.164c-3.251,3.896-10.409,14.307-5.934,26.171
					c0.564,1.496,1.873,2.592,3.426,2.97l0,0c2.21,0.537,4.5-0.5,5.542-2.522c1.935-3.758,5.288-9.809,8.851-14.148
					c1.424-1.734,7.424-6.709,7.424-6.709L62.832,311.516z"/>
				<g>
					<path style="fill:#130045;" d="M31.652,343.48c-0.284,0.632-0.078,1.385,0.423,1.839c0.484,0.439,1.249,0.511,1.834,0.254
						c0.081-0.035,0.139-0.094,0.185-0.159c0.188-0.101,0.361-0.23,0.484-0.413c0.365-0.544,0.388-1.331-0.088-1.822
						c-0.268-0.277-0.635-0.434-1.01-0.464c-0.064-0.023-0.122-0.06-0.189-0.075C32.632,342.49,31.924,342.874,31.652,343.48z"/>
					<path style="fill:#130045;" d="M31.35,337.215c-0.283,0.632-0.078,1.385,0.423,1.839c0.484,0.439,1.249,0.511,1.834,0.254
						c0.081-0.036,0.139-0.094,0.185-0.159c0.188-0.101,0.361-0.23,0.484-0.413c0.365-0.544,0.388-1.331-0.088-1.822
						c-0.268-0.277-0.635-0.434-1.01-0.465c-0.064-0.023-0.122-0.06-0.189-0.075C32.33,336.225,31.622,336.608,31.35,337.215z"/>
					<path style="fill:#130045;" d="M32.857,331.367c-0.284,0.632-0.078,1.385,0.423,1.839c0.484,0.439,1.249,0.511,1.834,0.254
						c0.081-0.036,0.139-0.094,0.185-0.159c0.188-0.101,0.361-0.23,0.484-0.413c0.365-0.544,0.388-1.331-0.088-1.822
						c-0.268-0.277-0.635-0.434-1.01-0.464c-0.064-0.023-0.122-0.06-0.189-0.075C33.837,330.377,33.129,330.76,32.857,331.367z"/>
					<path style="fill:#130045;" d="M35.434,325.887c-0.283,0.632-0.078,1.385,0.423,1.839c0.484,0.439,1.249,0.511,1.834,0.254
						c0.081-0.036,0.139-0.094,0.185-0.159c0.188-0.101,0.361-0.23,0.484-0.413c0.365-0.544,0.388-1.331-0.088-1.822
						c-0.268-0.277-0.635-0.434-1.01-0.465c-0.064-0.023-0.122-0.06-0.189-0.075C36.414,324.897,35.706,325.28,35.434,325.887z"/>
					<path style="fill:#130045;" d="M41.869,312.893c-0.284,0.632-0.078,1.385,0.423,1.839c0.484,0.439,1.249,0.511,1.834,0.254
						c0.081-0.036,0.139-0.094,0.185-0.159c0.188-0.101,0.361-0.23,0.484-0.413c0.365-0.544,0.388-1.331-0.088-1.822
						c-0.268-0.277-0.634-0.434-1.01-0.464c-0.064-0.023-0.122-0.06-0.189-0.075C42.849,311.903,42.141,312.286,41.869,312.893z"/>
					<path style="fill:#130045;" d="M43.533,309.096c-0.284,0.632-0.078,1.385,0.423,1.839c0.484,0.439,1.249,0.511,1.834,0.254
						c0.081-0.036,0.139-0.094,0.185-0.159c0.188-0.101,0.361-0.23,0.484-0.413c0.365-0.544,0.388-1.331-0.088-1.822
						c-0.268-0.277-0.634-0.434-1.01-0.464c-0.064-0.023-0.122-0.06-0.189-0.075C44.513,308.107,43.805,308.49,43.533,309.096z"/>
					<path style="fill:#130045;" d="M46.86,305.952c-0.283,0.632-0.078,1.385,0.423,1.839c0.484,0.439,1.249,0.511,1.834,0.254
						c0.081-0.035,0.138-0.094,0.185-0.159c0.188-0.101,0.361-0.23,0.484-0.413c0.365-0.544,0.388-1.331-0.088-1.822
						c-0.268-0.277-0.634-0.434-1.01-0.465c-0.064-0.023-0.122-0.06-0.189-0.075C47.84,304.962,47.132,305.345,46.86,305.952z"/>
				</g>
				<g>
					<path style="fill:#FFFFFF;" d="M55.575,331.546c-1.602-1.507-2.413-3.691-2.222-5.877c0.024-0.279-0.271-0.512-0.529-0.506
						c-0.305,0.007-0.482,0.249-0.506,0.529c-0.213,2.442,0.759,4.926,2.541,6.603C55.344,332.75,56.061,332.003,55.575,331.546z"/>
					<path style="fill:#FFFFFF;" d="M52.379,334.09c0.226,0.164,0.581,0.013,0.701-0.21c0.147-0.273,0.017-0.537-0.21-0.702
						c-1.742-1.265-2.673-3.574-2.336-5.692c0.104-0.654-0.902-0.901-1.007-0.241C49.109,329.873,50.233,332.532,52.379,334.09z"/>
				</g>
				<g>
					<path style="fill:#EC977B;" d="M132.522,260.782l-45.405-15.457c-10.573,18.459,0.969,42.643,20.102,68.791l-46.516-2.128
						c-4.097,4.473-4.801,9.209-2.063,14.212c16.852-1.939,41.695,10.397,66.001,21.771c0,0,24.832,10.409,24.088-14.275
						C148.73,333.698,145.161,288.235,132.522,260.782z"/>
					<path style="fill:#F27670;" d="M107.434,325.879c-1.955-4.976-5.307-9.797-10.191-12.22l-36.54-1.671
						c-4.097,4.473-4.801,9.209-2.063,14.212c13.425-1.545,31.923,5.972,51.18,14.843
						C110.167,335.909,109.304,330.637,107.434,325.879z"/>
					<path style="fill:#2F8253;" d="M112.047,307.707c6.657-0.863,13.355-0.017,19.463,2.807
						c5.952,2.751,11.062,6.993,15.944,11.302c-1.935-15.364-6.335-42.362-14.931-61.034l-45.405-15.457
						c-9.991,17.444-0.229,40.001,17.02,64.496C106.611,308.658,109.374,308.053,112.047,307.707z"/>
					<path style="fill:#130045;" d="M87.649,260.326c3.638,0.412,7.254,0.095,10.875-0.321c3.158-0.363,6.319-0.766,9.502-0.811
						c2.752-0.039,5.452,0.339,8.117,1.018c5.369,1.369,10.466,3.792,15.168,6.694c1.729,1.067,3.402,2.233,5.038,3.448
						c-1.173-3.35-2.445-6.57-3.827-9.572l-45.405-15.457c-2.485,4.338-3.746,8.992-3.976,13.914
						C84.582,259.879,86.309,260.174,87.649,260.326z"/>
					<path style="fill:#130045;" d="M130.978,333.897c-2.404-9.029-9.379-16.326-18.301-19.109c-2.589-0.807-5.295-1.22-8.006-1.238
						c-0.594-0.004-0.595,0.919,0,0.923c9.193,0.061,17.853,4.981,22.561,12.883c1.263,2.121,2.221,4.401,2.856,6.786
						C130.24,334.715,131.131,334.472,130.978,333.897z"/>
				</g>
			</g>
			<g>
				<path style="fill:#EC977B;" d="M164.652,198.944l6.832,32.33c1.145,5.42,4.464,10.125,9.182,13.027
					c8.078,4.968,21.274,12.456,32.076,15.599l3.976-6.507c0,0-19.955-19.937-28.633-22.49l-3.561-45.505
					c-0.406-5.185-2.518-10.089-6.006-13.946l-3.783-4.183c-0.663-0.733-1.876-0.433-2.12,0.525L164.652,198.944z"/>
				<path style="fill:#130045;" d="M176.096,228.981c4.084-0.904,7.95-2.537,11.467-4.735l-3.04-38.849
					c-0.406-5.185-2.518-10.089-6.006-13.946l-3.783-4.183c-0.663-0.733-1.876-0.433-2.12,0.525l-7.962,31.151l6.495,30.736
					C172.81,229.564,174.465,229.342,176.096,228.981z"/>
				<path style="fill:#2F8253;" d="M186.304,220.866c0.325-0.18,0.636-0.38,0.951-0.575l-2.73-34.894
					c-0.406-5.185-2.518-10.089-6.006-13.946l-3.967-4.386c-0.623-0.688-1.753-0.473-2.08,0.396l-12.292,32.729l5.285,25.01
					C173.717,227.024,182.261,223.112,186.304,220.866z"/>
				<path style="fill:#130045;" d="M173.426,217.61c-0.503-3.898-1.256-7.762-2.612-11.459c-1.848-5.035-4.702-9.564-7.594-14.055
					l-3.04,8.095l5.285,25.011c2.902,0.641,5.835,0.564,8.601,0.109C173.956,222.735,173.756,220.165,173.426,217.61z"/>
				<path style="fill:#EC977B;" d="M216.718,253.392l3.896-1.793c1.702-0.727,3.624-0.737,5.329-0.016
					c1.352,0.572,2.961,1.336,4.269,2.199c1.058,0.698,1.421,2.08,0.857,3.215l-0.124,0.25l1.673,1.954
					c0.766,0.894,0.578,2.255-0.408,2.899c-2.261,1.476-6.16,3.851-9.029,4.688c-1.18,0.344-2.451,0.081-3.416-0.679l-7.977-6.281
					L216.718,253.392z"/>
				<path style="fill:#130045;" d="M229.85,261.549c0.174-0.261,0.114-0.562-0.118-0.761c-0.571-0.491-1.222-0.892-1.913-1.196
					c1.296-0.528,2.513-1.252,3.593-2.142c0.54-0.445-0.134-1.3-0.676-0.853c-1.812,1.493-4.002,2.48-6.329,2.81
					c-0.429,0.061-1.105,0.209-1.495-0.062c-0.38-0.264-0.059-0.777,0.128-1.068c0.683-1.064,1.616-1.965,2.709-2.602
					c0.256-0.149,0.411-0.418,0.289-0.714c-0.101-0.245-0.46-0.437-0.714-0.289c-1.213,0.707-2.306,1.676-3.077,2.863
					c-0.752-0.501-1.748-0.665-2.592-0.29c-0.884,0.392-1.117,1.214-0.948,2.058c-0.827,0.081-1.68,0.345-2.041,1.17
					c-0.385,0.88,0.02,1.796,0.493,2.546c1.051,1.667,2.578,2.987,4.324,3.882c0.264,0.135,0.603-0.057,0.705-0.309
					c0.119-0.295-0.049-0.572-0.31-0.705c-1.34-0.686-2.511-1.682-3.413-2.886c-0.375-0.501-0.891-1.143-0.863-1.803
					c0.032-0.745,0.894-0.805,1.481-0.836c0.813,1.693,2.394,2.971,3.824,4.118c0.546,0.438,1.19-0.44,0.643-0.879
					c-1.251-1.003-2.597-2.061-3.369-3.5c-0.212-0.395-0.745-1.31-0.312-1.721c0.456-0.434,1.297-0.266,1.761,0.05
					c0.04,0.027,0.081,0.035,0.121,0.051c-0.118,0.372-0.154,0.764,0.009,1.141c0.271,0.627,0.947,0.902,1.589,0.943
					c0.064,0.004,0.13-0.002,0.195,0c0.036,0.059,0.081,0.115,0.136,0.163c0.932,0.824,1.865,1.647,2.797,2.471
					c0.221,0.195,0.599,0.104,0.761-0.118c0.187-0.255,0.103-0.566-0.118-0.761c-0.707-0.625-1.415-1.249-2.122-1.874
					c0.441-0.08,0.881-0.186,1.31-0.315c0.053,0.062,0.118,0.115,0.203,0.14c0.483,0.142,0.949,0.332,1.393,0.569
					c0.028,0.016,0.096,0.054,0.106,0.06c0.057,0.033,0.113,0.067,0.168,0.102c0.097,0.061,0.194,0.123,0.288,0.189
					c0.216,0.149,0.423,0.31,0.622,0.481C229.306,261.853,229.696,261.78,229.85,261.549z"/>
			</g>
			<path style="fill:#F27670;" d="M177.678,199.555c0,0-0.93,12.56-12.56,14.4c-0.4,0.09-0.8,0.22-1.19,0.37
				c-3.79,1.45-7.29,5.55-10.48,10.87c-8.58,14.29-14.93,37.38-18.51,41.74c0,0-1.38-8.72-24.35-11.02c0,0-26.34-0.15-26.18-6.59
				c0,0,6.63-13.63,15.61-21.38c5.44-4.72,10.82-8.46,14.58-14.59v-0.01c2.91-4.75,4.81-10.06,5.59-15.57l2.5-17.98l16.37-21.52
				l5.99-7.88l11.04,2.69l4.02,0.98l14.35,12.87c0,0,0.08,0.6,0.22,1.63c0.21,1.52,0.54,3.99,0.9,6.9
				C176.598,183.565,177.908,195.165,177.678,199.555z"/>
			<g>
				<path style="fill:#130045;" d="M163.928,214.325c-3.79,1.45-7.29,5.55-10.48,10.87c-4.15-1.5-12.39-4.5-14.55-5.47
					c-2.93-1.31-5.79-3.04-7.64-5.66c-0.49-0.68-0.91-1.47-0.89-2.3c0.02-0.79,0.44-1.5,0.93-2.11c2.28-2.85,6.24-3.9,9.88-3.57
					c3.63,0.34,7.03,1.84,10.36,3.33c2.75,1.23,5.51,2.46,8.26,3.69C161.088,213.675,162.548,214.255,163.928,214.325z"/>
			</g>
			<g>
				<path style="fill:#2F8253;" d="M175.583,175.461c-0.984,1.035-8.603,6.76-11.161,8.904
					c-0.569-2.712-13.738-21.482-14.567-26.069c-3.603-0.01-7.195-0.01-10.798-0.021l5.994-7.879l11.036,2.692l4.017,0.973
					l14.349,12.869c0,0,0.083,0.6,0.228,1.636C174.889,170.088,175.221,172.552,175.583,175.461z"/>
			</g>
			<path style="fill:#130045;" d="M112.678,220.058c3.25-1.584,6.4-3.553,9.273-5.748c4.378-3.345,7.54-7.965,9.27-13.18
				c1.758-5.3,2.141-10.958,1.893-16.506c-0.237-5.3-1.056-10.556-2.115-15.751l-8.31,10.926l-2.505,17.973
				c-0.776,5.518-2.671,10.819-5.591,15.571v0.01c-2.195,3.58-4.949,6.342-7.938,8.964
				C108.731,221.768,110.748,220.999,112.678,220.058z"/>
			<g>
				<path style="fill:#EC977B;" d="M174.455,166.93c0.148,1.072-0.181,2.168-0.931,2.947c-0.673,0.698-1.388,1.361-2.092,2.033
					c-0.926,0.891-6.399,6.679-6.399,6.679s-7.149-12.354-8.825-16.231c-0.787-1.812-1.848-2.913-1.786-4.891
					c0.052-1.594,0.59-3.22,1.667-4.379l4.017,0.973L174.455,166.93C174.455,166.93,174.455,166.93,174.455,166.93z"/>
			</g>
			<g>
				<g>
					<g>
						
							<rect x="159.077" y="141.963" transform="matrix(0.5296 -0.8483 0.8483 0.5296 -46.2742 216.4125)" style="fill:#EC977B;" width="25.811" height="15.928"/>
						<path style="fill:#130045;" d="M159.614,154.848L159.614,154.848l12.245-19.613l9.952,6.213
							c-0.52,2.299-1.479,4.651-2.881,6.896c-1.556,2.493-3.472,4.551-5.538,6.088C169.368,157.426,163.87,157.505,159.614,154.848z
							"/>
					</g>
					<g>
						<path style="fill:#EC977B;" d="M158.262,127.333c1.051-2.142,2.089-4.277,2.982-6.49c1.279-3.172,4.286-5.783,7.097-7.866
							c1.79-1.326,3.772-2.389,5.91-3.007c5.692-1.646,12.7,0.067,17.106,3.944c6.166,5.428,4.449,12.933,0.293,18.792
							c5.377-0.727,3.598,5.231,3.598,5.231c-1.779,5.957-7.521,3.993-7.521,3.993c-3.574,5.057-8.562,7.193-8.562,7.193
							c-4.689,2.071-8.459,2.831-11.427,2.896c-5.911,0.131-10.912-3.887-12.241-9.452c-1.093-4.58-0.232-9.079,1.803-13.27
							C157.62,128.641,157.941,127.987,158.262,127.333z"/>
						<g>
							<path style="fill:#130045;" d="M199.016,120.535c-0.432-0.713-0.966-1.379-1.65-1.856c-0.919-0.642-2.045-0.906-3.148-1.108
								c-1.123-0.205-2.266-0.359-3.404-0.268c-1.979,0.159-3.886,1.092-5.226,2.556c-1.328,1.451-2.085,3.409-2.084,5.376
								c-1.755,1.847-2.248,4.792-1.159,7.099c0.339,0.718,0.82,1.396,0.916,2.184c0.122,0.999-0.399,1.959-0.981,2.78
								c-0.773,1.091-1.866,2.165-3.203,2.133c0.77,0.66,1.678,1.209,2.684,1.34c1.251,0.163,2.504-0.34,3.552-1.042
								c1.048-0.702,1.947-1.602,2.945-2.373c1.08-0.833,2.589-1.521,3.755-0.813c0.403,0.245,0.703,0.629,0.934,1.04
								c0.472,0.836,0.69,1.857,0.398,2.772c-0.292,0.915-1.168,1.667-2.128,1.635c1.694,0.244,3.403-0.61,4.58-1.852
								c1.177-1.242,1.909-2.833,2.562-4.415c1.003-2.433,1.875-4.953,2.139-7.572S200.378,122.787,199.016,120.535z"/>
						</g>
						<g>
							<path style="fill:#130045;" d="M172.75,133.644c0.443-1.005,1.365-1.614,2.06-1.361c0.344,0.126,0.567,0.441,0.651,0.848
								c0.043,0.01,0.085,0.025,0.129,0.032c0.042,0.002,0.083,0.006,0.125,0.005c0.035-0.001,0.07-0.003,0.106-0.006
								c0.006-0.001,0.018-0.002,0.031-0.003c0.025-0.005,0.06-0.011,0.072-0.015c0.034-0.008,0.069-0.017,0.102-0.027
								c0.034-0.01,0.067-0.021,0.1-0.034c0.006-0.002,0.012-0.005,0.017-0.007c0.057-0.03,0.115-0.058,0.169-0.092
								c0.028-0.017,0.055-0.037,0.082-0.055c0.001-0.001,0.003-0.003,0.004-0.004c0.053-0.046,0.102-0.096,0.148-0.149
								c0.004-0.004,0.008-0.009,0.012-0.014c0.017-0.028,0.036-0.055,0.053-0.083c0.151-0.255,0.51-0.38,0.774-0.215
								c0.257,0.16,0.377,0.5,0.215,0.774c-0.452,0.764-1.372,1.159-2.23,1.038c-0.031,0.096-0.062,0.192-0.105,0.288
								c-0.443,1.006-1.365,1.614-2.059,1.36C172.511,135.67,172.306,134.649,172.75,133.644z"/>
							<path style="fill:#130045;" d="M171.499,141.54c-0.884,1.155-2.147,1.993-3.581,2.285c-1.598,0.326-3.297-0.044-4.629-0.979
								c-0.591-0.415,0.015-1.366,0.61-0.947c2.11,1.482,5.069,1.099,6.652-0.969C170.989,140.358,171.942,140.962,171.499,141.54z"
								/>
							<path style="fill:#130045;" d="M181.161,130.467c0.046-0.061-5.23-1.434-7.251-1.957c-0.357-0.092-0.681,0.225-0.602,0.585
								l0.064,0.291c0.117,0.535,0.572,0.927,1.118,0.966c2.07,0.145,4.14,0.299,6.208,0.46
								C180.96,130.833,181.114,130.665,181.161,130.467z"/>
							<path style="fill:#130045;" d="M163.34,122.042c0.032-0.069,3.125,2.708,4.536,4.247c0.249,0.272,0.121,0.707-0.234,0.807
								l-0.286,0.08c-0.527,0.148-1.087-0.07-1.378-0.534c-1.101-1.759-1.611-2.278-2.725-4.029
								C163.112,122.391,163.188,122.177,163.34,122.042z"/>
							<path style="fill:#130045;" d="M162.013,127.34c0.078-0.286,0.39-0.502,0.689-0.413c0.29,0.086,0.497,0.382,0.413,0.688
								c-0.022,0.08-0.035,0.162-0.048,0.244c-0.012,0.144-0.017,0.289-0.002,0.433c0.001,0.012,0.003,0.024,0.004,0.037
								c0.007,0.034,0.013,0.068,0.021,0.103c0.02,0.084,0.044,0.167,0.073,0.248c0.011,0.033,0.024,0.065,0.037,0.097
								c0.003,0.007,0.007,0.015,0.011,0.023c0.015,0.031,0.034,0.06,0.051,0.09c0.361-0.226,0.748-0.308,1.083-0.186
								c0.694,0.254,0.898,1.274,0.455,2.28c-0.443,1.005-1.365,1.614-2.06,1.36c-0.694-0.254-0.899-1.274-0.455-2.279
								c0.054-0.121,0.115-0.236,0.181-0.345C161.981,129.036,161.791,128.151,162.013,127.34z"/>
						</g>
						<path style="fill:#130045;" d="M162.969,135.314c0.365-0.373,0.853-0.608,1.291-0.883c0.498-0.313,0.96-0.677,1.39-1.075
							c0.865-0.8,1.555-1.742,2.082-2.777c0.145-0.284,0.567-0.342,0.814-0.198c0.292,0.17,0.314,0.506,0.171,0.786
							c-0.885,1.736-2.256,3.216-3.931,4.268c-0.645,0.405-1.499,0.779-1.153,1.647c0.346,0.868,1.438,1.108,2.271,1.324
							c0.725,0.188,0.366,1.293-0.358,1.105c-1.084-0.282-2.224-0.642-2.831-1.62C162.214,137.081,162.26,136.038,162.969,135.314z"
							/>
					</g>
				</g>
			</g>
			<g>
				<path style="fill:#EC977B;" d="M145.048,150.394c-9.757-3.193-29.066,9.564-49.316,23.892
					c-13.994,4.784-25.903,10.582-33.388,18.532l-14.416,7.632c-0.775,0.41-1.366,1.099-1.653,1.927l-2.896,8.341
					c-0.316,0.909-0.341,1.894-0.073,2.818l2.344,8.075c0,0,1.072,1.378,1.685,0c0,0,2.221,2.374,2.986,0.383l-1.838-7.658
					l3.14-6.356l6.432-3.369l0,0c-0.183,2.43-1.364,4.667-3.246,6.215c-1.538,1.265-3.042,2.796-2.727,3.74
					c0,0,0.153,3.982,7.198-3.369l2.88-2.531c1.432-1.259,2.575-2.813,3.35-4.556l1.888-4.247c0,0,14.396-2.91,27.568-9.036
					l26.383-10.062c4.893-1.866,9.313-4.791,12.916-8.591C139.897,166.234,146.948,157.137,145.048,150.394z"/>
				<path style="fill:#130045;" d="M145.048,150.394c-8.927-2.922-25.849,7.509-44.17,20.277c0.503,5.927,0.501,11.884,0.192,17.828
					l20.279-7.734c4.893-1.866,9.313-4.791,12.916-8.591C139.897,166.234,146.948,157.136,145.048,150.394z"/>
				<path style="fill:#2F8253;" d="M145.048,150.394c-7.937-2.598-22.193,5.359-38.135,16.129c0.047,1.075,0.095,2.149,0.143,3.224
					c0.246,5.457,0.136,18.961-0.143,24.417l14.118-5.384c4.893-1.866,9.313-4.791,12.916-8.591
					C139.579,174.249,149.795,156.763,145.048,150.394z"/>
				<g>
					<path style="fill:#130045;" d="M47.336,222.073c-0.195,0-0.376-0.124-0.439-0.32l-2.451-7.581
						c-0.032-0.096-0.03-0.201,0.005-0.297l2.91-8.194c0.085-0.24,0.353-0.364,0.589-0.28c0.241,0.085,0.366,0.349,0.28,0.59
						l-2.857,8.046l2.403,7.432c0.078,0.242-0.054,0.503-0.297,0.581C47.431,222.065,47.383,222.073,47.336,222.073z"/>
				</g>
			</g>
			<g>
				<g>
					<path style="fill:#130045;" d="M196.786,120.714c-1.066,2.464-3.841,3.644-6.429,4.359c-2.474,0.673-5.27,1.097-7.485-0.217
						c-1.201-0.714-2.081-1.874-3.292-2.588c-1.915-1.139-4.327-0.973-6.533-0.652c1.75-0.756,3.499-1.543,5.228-2.35
						c-1.273-2.06-4.255-2.06-6.626-1.543c-4.887,1.046-10.032,3.748-11.399,8.551c-0.3,1.066-0.404,2.195-0.839,3.22
						c-0.435,1.015-1.335,1.946-2.454,1.967c0.259-0.694,0.518-1.377,0.776-2.071c0,0-5.649,9.81,0.569,18.48
						c-2.029,1.004-4.317,1.377-6.574,1.563c-3.365,0.269-6.885,0.093-9.887-1.46c-3.013-1.543-5.363-4.721-5.094-8.086
						c1.832,0.901,3.779,1.563,5.787,1.967c0.373,0.073,0.756,0.135,1.139,0.176c1.77,0.186,3.613-0.01,4.793-1.273
						c0.859-0.911,1.18-2.184,1.387-3.417c0.093-0.518,0.155-1.035,0.217-1.553c-0.062-0.569-0.176-1.128-0.321-1.667
						c-0.093-0.352-0.197-0.694-0.311-1.025c-0.818-2.381-2.122-4.618-2.443-7.113c-0.518-3.986,1.895-8.168,5.601-9.721
						c1.615-0.683,3.416-0.901,4.928-1.791c2.412-1.418,3.592-4.224,5.435-6.336c2.215-2.536,5.446-4.069,8.759-4.679
						c3.323-0.601,6.75-0.362,10.074,0.207c1.656,0.279,3.323,0.642,4.845,1.367c2.568,1.232,4.524,3.416,6.419,5.539
						c1.263,1.429,2.557,2.878,3.375,4.607C197.252,116.904,197.552,118.965,196.786,120.714z"/>
				</g>
			</g>
		</g>
		<g>
			<path style="fill:#FFFFFF;" d="M81.655,276.396c0,4.046-0.99,7.87-2.731,11.233c-0.29,0.598-0.632,1.178-0.973,1.741
				c-4.353,6.948-12.052,11.574-20.844,11.574c-2.783,0-5.446-0.461-7.938-1.315c-0.871-0.29-1.724-0.649-2.561-1.041
				c-1.4-0.649-2.714-1.451-3.96-2.356c-0.734-0.529-1.434-1.092-2.1-1.707c-4.916-4.49-7.989-10.96-7.989-18.129
				c0-4.336,1.127-8.399,3.09-11.915c0.324-0.58,0.666-1.161,1.042-1.707c3.329-4.985,8.45-8.689,14.442-10.191
				c0.717-0.188,1.468-0.324,2.219-0.444h0.017c1.212-0.188,2.475-0.29,3.738-0.29c10.106,0,18.795,6.111,22.551,14.835
				c0.29,0.683,0.563,1.383,0.768,2.083C81.228,271.173,81.655,273.733,81.655,276.396z"/>
			<path style="fill:#130045;" d="M81.658,276.399c0,4.038-0.994,7.868-2.733,11.233c-0.29,0.59-0.631,1.17-0.973,1.739
				c-4.359,6.947-12.051,11.575-20.84,11.575c-2.785,0-5.446-0.466-7.941-1.315c-0.87-0.29-1.729-0.652-2.557-1.046
				c-1.408-0.642-2.723-1.449-3.965-2.35c-0.735-0.528-1.439-1.097-2.102-1.708c-1.481-1.356-2.806-2.899-3.913-4.576
				c0.321,0.331,0.652,0.652,0.994,0.963c0.663,0.621,1.367,1.18,2.102,1.708c1.242,0.911,2.557,1.708,3.955,2.361
				c0.839,0.393,1.698,0.745,2.568,1.035c2.495,0.859,5.156,1.315,7.941,1.315c8.79,0,16.482-4.617,20.841-11.575
				c0.342-0.559,0.683-1.139,0.973-1.739c1.739-3.365,2.733-7.185,2.733-11.233c0-2.661-0.435-5.218-1.232-7.63
				c-0.207-0.694-0.476-1.398-0.766-2.081c-0.58-1.346-1.284-2.64-2.091-3.851c2.102,2.133,3.81,4.659,5.011,7.454
				c0.29,0.683,0.559,1.387,0.766,2.091C81.223,271.171,81.658,273.728,81.658,276.399z"/>
			<path style="fill:#130045;" d="M80.425,268.766c-0.205-0.7-0.478-1.4-0.768-2.083l-6.914,11.967H55.519l-8.74-15.125
				l6.572-11.386c-0.751,0.119-1.502,0.256-2.219,0.444l-5.889,10.191H36.69c-0.376,0.546-0.717,1.127-1.042,1.707h9.594
				l8.672,15.022l-8.672,15.022h-4.695c0.666,0.615,1.366,1.178,2.1,1.707h2.595l1.366,2.356c0.836,0.393,1.69,0.751,2.561,1.041
				l-2.39-4.148l8.74-15.125h17.225l5.207,9.013c0.341-0.563,0.683-1.144,0.973-1.741l-4.695-8.126L80.425,268.766z"/>
		</g>
		<g>
			<path style="fill:#FFFFFF;" d="M132.261,421.942c-0.533,2.134-2.043,3.908-4.044,4.809c-0.255,0.115-0.315,0.486-0.184,0.709
				c0.155,0.263,0.453,0.299,0.709,0.184c2.235-1.007,3.928-3.068,4.521-5.442C133.425,421.556,132.423,421.295,132.261,421.942z"/>
			<path style="fill:#FFFFFF;" d="M136.043,423.489c0.033-0.278-0.273-0.513-0.526-0.51c-0.31,0.005-0.477,0.247-0.51,0.526
				c-0.253,2.138-1.813,4.078-3.826,4.818c-0.621,0.228-0.346,1.227,0.282,0.996C133.959,428.401,135.731,426.122,136.043,423.489z"
				/>
		</g>
	</g>
	<g>
		<g>
			<g>
				<path style="fill:#130045;" d="M620.487,124.774c0.284,2.187,1.689,4.263,1.03,6.415c-0.612,2.03-2.768,2.975-4.629,3.035
					c-2.079,0.076-4.154-0.567-6.201,0.145c-0.983,0.342-1.865,1.092-2.403,2.095c-1.048,1.956-0.043,3.005,0.391,4.325
					c1.083,3.239-2.386,7.369-5.325,6.335c-3.215-1.122-4.027-6.315-7.241-7.408c-3.595-1.225-6.848,3.337-10.492,4.908
					c-5.129,2.217-11.044-3.333-9.971-9.348c0.563-3.095,2.52-5.815,2.492-9.071c-0.012-1.44-0.55-2.827-1.625-3.533
					c-1.677-1.102-3.198,0.191-4.802,0.685c-3.637,1.108-7.269-2.699-7.087-6.895c0.18-4.188,3.531-7.91,7.215-8.778
					c1.652-0.386,3.352-0.296,4.998-0.789c0.014-0.004,0.028-0.009,0.042-0.013c1.936-0.607,2.699-3.305,1.486-4.98
					c-0.503-0.695-0.891-1.464-1.062-2.379c-0.188-1.043-0.064-2.142,0.159-3.206c1.259-5.931,5.44-10.928,10.335-13.668
					c4.895-2.741,10.427-3.444,15.729-3.094c7.592,0.501,15.246,3.314,20.164,9.547c4.925,6.234,6.412,16.34,2.141,23.8
					C623.622,116.756,619.908,120.407,620.487,124.774z"/>
			</g>
			<g>
				<path style="fill:#A33F59;" d="M597.45,169.416l-30.64,9.64l-17.36,5.46c-12.73,5.92-26.63,8.73-26.63,8.73l-1.82,4.1
					c-0.75,1.68-1.86,3.19-3.24,4.4l-2.78,2.45c-6.81,7.1-6.95,3.25-6.95,3.25c-0.31-0.91,1.15-2.39,2.63-3.61
					c0.91-0.75,1.65-1.67,2.18-2.69c0.54-1.02,0.87-2.14,0.96-3.32l-6.22,3.26l-3.03,6.14l1.77,7.4c-0.73,1.92-2.88-0.37-2.88-0.37
					c-0.59,1.33-1.63,0-1.63,0l-2.26-7.8c-0.26-0.9-0.24-1.85,0.07-2.73l2.8-8.05c0.27-0.8,0.84-1.47,1.59-1.86l13.93-7.38
					c7.23-7.67,18.73-13.27,32.25-17.9c3.3-2.33,6.56-4.62,9.77-6.79c15.81-10.76,30.03-18.85,37.86-16.28
					C601.88,148.696,602.18,167.616,597.45,169.416z"/>
				<g>
					<path style="fill:#F6A850;" d="M600.44,175.722c-12.131,6.771-23.656,12.142-33.116,12.748
						c-1.11-6.14-3.964-21.484-7.364-26.724c15.81-10.76,30.03-18.85,37.86-16.28C601.88,148.696,605.17,173.922,600.44,175.722z"/>
				</g>
				<g>
					<path style="fill:#130045;" d="M503.441,214.697c-0.188,0-0.363-0.12-0.424-0.309l-2.368-7.323
						c-0.031-0.093-0.029-0.194,0.004-0.286l2.811-7.915c0.082-0.232,0.34-0.352,0.569-0.271c0.232,0.082,0.353,0.338,0.271,0.57
						l-2.76,7.772l2.321,7.179c0.076,0.234-0.052,0.486-0.286,0.561C503.532,214.69,503.486,214.697,503.441,214.697z"/>
				</g>
			</g>
			<g>
				<g>
					<path style="fill:#A33F59;" d="M691.36,64.369c0.164-0.081,2.348-0.369,3.695-0.541c0.682-0.087,1.37,0.052,1.965,0.396
						l4.529,2.619c0,0-0.674,2.244-5.047,0.158l-2.871-0.207l-5.123,2.506L691.36,64.369z"/>
					<path style="fill:#130045;" d="M693.669,66.796c0.124-0.128,0.242-0.263,0.375-0.381c0.459-0.405,0.967-0.757,1.509-1.042
						c0.663-0.348,1.367-0.593,2.086-0.79l-0.619-0.358c-0.595-0.344-1.284-0.483-1.965-0.396c-1.347,0.172-3.531,0.46-3.695,0.541
						l-2.851,4.93l5.123-2.506L693.669,66.796z"/>
					<path style="fill:#A33F59;" d="M693.531,61.354c0.165-0.081,2.348-0.369,3.695-0.541c0.682-0.087,1.37,0.052,1.965,0.396
						l4.529,2.619c0,0-0.674,2.244-5.047,0.158l-2.871-0.207l-5.123,2.506L693.531,61.354z"/>
					<path style="fill:#130045;" d="M695.387,62.542c0.499-0.596,1.044-1.149,1.593-1.698c-1.352,0.174-3.294,0.433-3.449,0.509
						l-2.851,4.931l3.303-1.616C694.384,63.92,694.833,63.204,695.387,62.542z"/>
				</g>
				<path style="fill:#A33F59;" d="M620.495,134.323c0,0,5.838,12.626,10.141,15.987l50.526-72.441c0,0,4.852,1.951,11.136-3.301
					c0,0,8.77-0.745,12.039-1.921c0.647-0.232,1.181-1.015,1.076-1.694c-0.358-2.314-5.615-1.519-11.063-1.456
					c-0.847,0.01-1.698-0.271-2.301-0.866c-0.782-0.772-1.287-2.091,0.493-4.089l3.901-5.861c0,0,5.472-0.727,6.984-2.754
					c0.351-0.471,0.132-1.163-0.434-1.319c-1.281-0.354-3.467-0.248-5.984,0.335c-1.407,0.325-2.679,1.079-3.68,2.119
					c-2.165,2.246-4.654,4.097-7.556,5.446L675.257,73.6C675.257,73.6,636.701,112.73,620.495,134.323z"/>
				<path style="fill:#F6A850;" d="M654.847,110.311c-2.706-2.241-5.098-4.813-7.271-7.565
					c-9.983,10.866-20.419,22.702-27.08,31.577c0,0,11.795,17.16,16.098,20.522l26.609-38.15
					C662.384,116.105,655.626,110.956,654.847,110.311z"/>
			</g>
			<g>
				<g>
					<path style="fill:#130045;" d="M693.971,414.069l-7.173,4.169c0,0-2.688,7.19-1.129,10.622c2.27,4.995,3.293,7.962,8.437,6.054
						l7.106-1.518c1.437-0.533,2.972-0.732,4.495-0.565c4.914,0.538,17.223,0.735,24.44-9.292c0.91-1.264,1.094-2.918,0.563-4.382
						l0,0c-0.756-2.084-2.832-3.383-5.035-3.138c-4.093,0.455-10.812,0.996-16.255,0.443c-2.175-0.221-4.301-0.816-6.257-1.793
						C700.825,413.501,696.542,411.883,693.971,414.069z"/>
					<g>
						<path style="fill:#FFFFFF;" d="M705.622,414.954c0.019,2.124-0.964,4.148-2.616,5.476c-0.211,0.169-0.176,0.531,0,0.707
							c0.208,0.208,0.496,0.17,0.707,0c1.846-1.483,2.93-3.82,2.909-6.183C706.617,414.311,705.617,414.309,705.622,414.954z"/>
						<path style="fill:#FFFFFF;" d="M709.533,415.484c-0.036-0.268-0.38-0.414-0.615-0.349c-0.289,0.079-0.386,0.346-0.349,0.615
							c0.281,2.06-0.708,4.252-2.411,5.431c-0.526,0.364-0.026,1.231,0.505,0.863C708.774,420.582,709.879,418.022,709.533,415.484z
							"/>
					</g>
					<path style="fill:#A33F59;" d="M677.307,338.126v-6.635c0-3.619-1.146-7.153-3.312-10.053
						c-1.999-2.676-4.694-6.628-7.487-11.742c-12.487-22.865-31.99-63.91-31.99-63.91l-31.066-7.741l-3.218,25.201
						c6.953,41.421,36.539,47.93,56.362,77.816c-2.219,24.264,14.645,51.625,14.645,51.625
						c5.917,10.059,16.844,26.412,16.844,26.412l9.784-5.11c-1.898-3.389-17.587-63.06-20.196-73.009
						C677.429,340.046,677.307,339.091,677.307,338.126z"/>
					<path style="fill:#130045;" d="M639.48,316.481c1.857-0.452,3.673-1.146,5.465-1.806c1.729-0.637,3.443-1.315,5.143-2.026
						c3.591-1.503,7.117-3.158,10.603-4.888c1.255-0.623,2.5-1.264,3.745-1.905c-12.457-23.323-29.918-60.07-29.918-60.07
						l-31.066-7.741l-3.218,25.201c4.682,27.895,19.631,39.959,34.948,53.99C636.626,317.042,638.065,316.825,639.48,316.481z"/>
					<path style="fill:#F6A850;" d="M697.87,413.992c-1.781,3.007-5.2,4.574-9.79,5.11c0,0-10.92-16.36-16.84-26.42
						c0,0-2.66-4.32-5.73-11.05c-1.25-2.74-2.58-5.89-3.81-9.3c7.82-2.12,15-6.03,21.31-11.14c0.96,3.6,1.98,7.43,3.03,11.33
						C691.14,391.522,696.77,412.042,697.87,413.992z"/>
					<path style="fill:#FFFFFF;" d="M686.04,372.522c-4.93,4.25-12.12,7.5-20.53,9.11c-1.25-2.74-2.58-5.89-3.81-9.3
						c7.82-2.12,15-6.03,21.31-11.14C683.97,364.792,684.99,368.622,686.04,372.522z"/>
					<path style="fill:#F6A850;" d="M625.526,314.451c10.599-2.713,27.282-7.271,36.5-13.151
						c-12.179-23.252-27.509-55.514-27.509-55.514l-31.066-7.741l-3.218,25.201C604.604,289.283,611.316,301.525,625.526,314.451z"
						/>
				</g>
				<g>
					<path style="fill:#130045;" d="M466.903,271.266l6.109-6.536c0,0,0.539-8.26-2.139-11.318
						c-3.898-4.451-10.637-5.009-15.355-1.44l-2.104,1.592c-1.318,0.997-2.84,1.68-4.465,1.982
						c-5.241,0.973-18.011,4.599-22.342,17.198c-0.546,1.588-0.222,3.353,0.782,4.699l0,0c1.429,1.916,3.976,2.612,6.174,1.674
						c4.085-1.743,10.853-4.392,16.645-5.515c2.315-0.449,4.695-0.496,7.018-0.095C460.003,273.985,464.928,274.324,466.903,271.266
						z"/>
					<g>
						<path style="fill:#FFFFFF;" d="M452.858,273.57c-0.849-1.948-0.737-4.195,0.265-6.063c0.128-0.238-0.045-0.557-0.277-0.651
							c-0.273-0.11-0.523,0.038-0.651,0.277c-1.119,2.087-1.202,4.662-0.258,6.829C452.195,274.551,453.116,274.161,452.858,273.57z
							"/>
						<path style="fill:#FFFFFF;" d="M449.052,274.612c0.138,0.232,0.511,0.232,0.703,0.081c0.235-0.186,0.22-0.47,0.081-0.703
							c-1.064-1.786-1.012-4.19,0.094-5.942c0.341-0.54-0.458-1.143-0.802-0.597C447.755,269.623,447.741,272.411,449.052,274.612z"
							/>
					</g>
					<path style="fill:#A33F59;" d="M464.16,273.588c6.786,6.23,30.845,27.788,48.468,36.855c5.551,2.856,11.998,3.38,17.934,1.445
						c13.877-4.525,44.699-15.5,77.36-33.234c7.492-4.068,12.597-11.469,13.697-19.923l2.037-15.655l-38.068-12.032l-19.303,18.844
						c-3.594,3.508-5.897,8.128-6.536,13.11l0,0l-35.504,28.403c0,0-1.892-13.246-36.446-21.945
						c-3.268-0.823-6.451-1.978-9.455-3.505c-1.795-0.912-3.688-2.03-5.382-3.348c0,0-7.149,0.438-9.777,6.081
						C462.407,270.357,462.802,272.341,464.16,273.588z"/>
					<path style="fill:#130045;" d="M585.589,231.045l-19.303,18.844c-3.594,3.508-5.897,8.128-6.536,13.11l-29.717,23.774
						c0.19,1.113,0.416,2.22,0.713,3.312c1.534,5.643,4.332,10.957,7.92,15.563c0.722,0.926,1.487,1.823,2.279,2.697
						c16.045-5.701,40.921-15.543,66.977-29.69c7.492-4.068,12.597-11.469,13.697-19.923l2.037-15.655L585.589,231.045z"/>
					<path style="fill:#F6A850;" d="M505.64,275.432c-4.13,1.05-7.97,3.2-11.11,6.13c-3.4,3.17-5.99,7.29-7.19,11.78
						c-2.36-1.86-4.65-3.71-6.82-5.51c-7.283-6.022-13.296-11.437-16.246-14.141c-1.43-1.311-1.87-3.41-1.02-5.153
						c2.683-5.507,9.706-5.936,9.706-5.936c1.78,1.38,3.77,2.54,5.64,3.48c2.93,1.47,6.03,2.58,9.21,3.38
						c4.23,1.06,7.95,2.19,11.25,3.37C501.48,273.682,503.66,274.552,505.64,275.432z"/>
					<path style="fill:#FFFFFF;" d="M505.64,275.432c-4.13,1.05-7.97,3.2-11.11,6.13c-3.4,3.17-5.99,7.29-7.19,11.78
						c-2.36-1.86-4.65-3.71-6.82-5.51c2.52-6.38,9.34-11.76,18.54-15C501.48,273.682,503.66,274.552,505.64,275.432z"/>
					<path style="fill:#F6A850;" d="M585.589,231.045l-19.303,18.844c-3.594,3.508-5.897,8.128-6.536,13.11l-22.98,18.384
						c0.287,1.301,0.672,2.583,1.162,3.836c2.458,6.289,7.143,11.502,12.261,15.782c1.101,0.921,10.603,7.163,11.759,8.014
						c8.429-4.216,26.022-19.529,45.97-30.359c7.492-4.068,12.597-11.469,13.697-19.923l2.037-15.655L585.589,231.045z"/>
					<path style="fill:#2E7BD5;" d="M625.526,314.451c10.599-2.713,27.282-7.271,36.5-13.151
						c-12.179-23.252-27.509-55.514-27.509-55.514l-31.066-7.741l-3.218,25.201C604.604,289.283,611.316,301.525,625.526,314.451z"
						/>
					<path style="fill:#130045;" d="M630.462,305.117c-4.023-4.803-7.596-9.987-10.591-15.491c-1.475-2.71-2.805-5.496-3.988-8.346
						c-0.562-1.354-1.104-2.721-1.579-4.108c-0.365-1.064-0.662-2.152-1.061-3.203c-0.3-0.789-0.694-1.618-1.379-2.145
						c-0.806-0.619-1.882-0.707-2.862-0.673c-2.36,0.081-4.707,0.753-6.929,1.587c4.408,19.739,11.094,30.47,23.454,41.713
						c3.186-0.815,6.925-1.8,10.841-2.935C634.314,309.464,632.327,307.344,630.462,305.117z"/>
					<path style="fill:#2E7BD5;" d="M623.66,243.076l-2.04,15.66c-1.1,8.45-6.21,15.85-13.7,19.92
						c-19.95,10.83-37.54,26.14-45.97,30.36c-1.15-0.85-10.66-7.09-11.76-8.02c-2.73-2.29-5.34-4.84-7.56-7.68
						c-1.93-2.47-3.55-5.16-4.7-8.1c-0.02-0.05-0.04-0.09-0.05-0.14c-0.47-1.21-0.83-2.44-1.11-3.69l22.98-18.39
						c0.64-4.98,2.94-9.6,6.54-13.11l19.3-18.84L623.66,243.076z"/>
					<path style="fill:#F6A850;" d="M596.07,240.226c-2.27-2.11-4.96-3.72-7.89-4.72c-0.68-0.23-1.37-0.42-2.07-0.58
						c-0.36-0.09-0.73-0.16-1.1-0.22c-0.31-0.06-0.69-0.19-0.99-0.05c-0.31,0.14-0.62,0.47-0.88,0.68
						c-0.26,0.21-0.51,0.41-0.76,0.62c-0.6,0.51-1.19,1.03-1.77,1.57c-4.28,4.01-7.73,8.93-10.06,14.32
						c-1.18,2.71-2.44,5.49-2.68,8.44c-0.61,7.41-10.78,13.25-12.43,14.24l-9.64,5.79c-2.64,1.58-5.28,3.17-7.92,4.76
						c0.01,0.05,0.03,0.09,0.05,0.14c1.15,2.94,2.77,5.63,4.7,8.1c2.18-1.34,4.34-2.7,6.49-4.08c2.65-1.7,5.28-3.42,7.89-5.17
						c2.49-1.66,4.99-3.3,7.38-5.1c2.19-1.65,4.27-3.46,5.96-5.63c1.73-2.23,2.94-4.79,4.08-7.36c1.1-2.5,2.21-4.97,3.6-7.32
						c1.32-2.26,2.83-4.4,4.51-6.41c3.76-4.51,8.31-8.33,13.43-11.24C596.24,240.856,596.3,240.446,596.07,240.226z"/>
					<path style="fill:#130045;" d="M579.313,245.055c2.146,1.592,4.55,2.819,6.988,3.894c4.244,1.872,8.682,3.226,13.067,4.72
						c6.346,2.162,12.906,3.574,19.599,4.062c6.979,0.508,13.906,0.006,20.751-1.116c-3.167-6.55-5.2-10.829-5.2-10.829
						l-10.861-2.707l0-0.002l-38.068-12.032l-10.102,9.861C576.383,242.571,577.811,243.94,579.313,245.055z"/>
				</g>
				<g>
					<path style="fill:#130045;" d="M425.779,269.625c-0.643,0.341-0.959,1.098-0.837,1.798c0.118,0.676,0.706,1.23,1.358,1.394
						c0.09,0.023,0.175,0.012,0.256-0.012c0.221,0.038,0.448,0.043,0.668-0.03c0.654-0.216,1.181-0.853,1.103-1.568
						c-0.044-0.402-0.246-0.769-0.538-1.037c-0.038-0.06-0.063-0.129-0.108-0.184C427.23,269.436,426.396,269.297,425.779,269.625z"
						/>
					<path style="fill:#130045;" d="M429.573,264.234c-0.643,0.341-0.959,1.098-0.837,1.798c0.118,0.676,0.706,1.23,1.358,1.395
						c0.09,0.023,0.175,0.012,0.256-0.012c0.221,0.038,0.448,0.043,0.668-0.03c0.654-0.216,1.181-0.853,1.103-1.568
						c-0.044-0.402-0.246-0.77-0.538-1.037c-0.038-0.06-0.063-0.128-0.108-0.184C431.025,264.046,430.19,263.906,429.573,264.234z"
						/>
					<path style="fill:#130045;" d="M434.598,260.357c-0.643,0.341-0.959,1.098-0.837,1.798c0.118,0.676,0.706,1.23,1.358,1.394
						c0.09,0.023,0.175,0.012,0.256-0.012c0.221,0.038,0.448,0.043,0.668-0.03c0.654-0.216,1.181-0.853,1.103-1.568
						c-0.044-0.402-0.246-0.77-0.538-1.037c-0.038-0.06-0.063-0.128-0.108-0.184C436.05,260.168,435.215,260.029,434.598,260.357z"
						/>
					<path style="fill:#130045;" d="M440.272,257.475c-0.643,0.341-0.959,1.098-0.837,1.798c0.118,0.676,0.706,1.23,1.358,1.394
						c0.09,0.023,0.175,0.012,0.256-0.012c0.221,0.038,0.448,0.043,0.668-0.03c0.654-0.216,1.181-0.853,1.103-1.568
						c-0.044-0.402-0.246-0.77-0.538-1.037c-0.038-0.06-0.063-0.128-0.108-0.184C441.724,257.287,440.889,257.148,440.272,257.475z"
						/>
					<path style="fill:#130045;" d="M454.71,251.408c-0.643,0.341-0.959,1.098-0.837,1.798c0.118,0.676,0.706,1.23,1.358,1.394
						c0.09,0.023,0.175,0.012,0.256-0.012c0.221,0.038,0.448,0.043,0.668-0.03c0.654-0.216,1.181-0.853,1.103-1.568
						c-0.044-0.402-0.246-0.77-0.538-1.037c-0.038-0.06-0.063-0.128-0.108-0.184C456.162,251.219,455.328,251.08,454.71,251.408z"/>
					<path style="fill:#130045;" d="M458.441,249.065c-0.643,0.341-0.959,1.098-0.837,1.798c0.118,0.676,0.706,1.23,1.358,1.394
						c0.09,0.023,0.175,0.012,0.256-0.012c0.221,0.038,0.448,0.043,0.668-0.03c0.654-0.216,1.181-0.853,1.103-1.568
						c-0.044-0.402-0.246-0.769-0.538-1.037c-0.038-0.06-0.063-0.128-0.108-0.184C459.893,248.876,459.058,248.737,458.441,249.065z
						"/>
					<path style="fill:#130045;" d="M462.405,247.531c-0.643,0.341-0.959,1.098-0.837,1.798c0.118,0.676,0.706,1.23,1.358,1.394
						c0.09,0.023,0.175,0.012,0.256-0.012c0.221,0.038,0.448,0.043,0.668-0.03c0.654-0.216,1.181-0.853,1.103-1.568
						c-0.044-0.402-0.246-0.769-0.538-1.037c-0.038-0.06-0.063-0.128-0.108-0.184C463.857,247.343,463.023,247.203,462.405,247.531z
						"/>
				</g>
				<g>
					<path style="fill:#130045;" d="M730.049,426.303c0.651-0.153,1.109-0.752,1.164-1.403c0.053-0.629-0.34-1.258-0.881-1.557
						c-0.075-0.041-0.153-0.051-0.231-0.049c-0.188-0.085-0.388-0.143-0.601-0.13c-0.632,0.039-1.249,0.482-1.347,1.136
						c-0.055,0.368,0.039,0.741,0.236,1.047c0.02,0.063,0.026,0.129,0.053,0.189C728.714,426.131,729.424,426.45,730.049,426.303z"
						/>
					<path style="fill:#130045;" d="M725.416,430.208c0.651-0.153,1.109-0.752,1.164-1.403c0.053-0.629-0.34-1.258-0.881-1.557
						c-0.075-0.041-0.153-0.051-0.231-0.049c-0.188-0.085-0.388-0.143-0.601-0.129c-0.632,0.039-1.249,0.482-1.347,1.136
						c-0.055,0.368,0.039,0.741,0.236,1.048c0.02,0.063,0.026,0.129,0.053,0.189C724.082,430.036,724.791,430.355,725.416,430.208z"
						/>
					<path style="fill:#130045;" d="M720.043,432.479c0.651-0.153,1.109-0.752,1.164-1.403c0.053-0.629-0.34-1.258-0.881-1.557
						c-0.075-0.041-0.153-0.051-0.231-0.049c-0.188-0.085-0.388-0.142-0.601-0.129c-0.632,0.039-1.249,0.482-1.347,1.136
						c-0.055,0.368,0.039,0.742,0.236,1.048c0.02,0.063,0.026,0.129,0.053,0.189C718.709,432.307,719.418,432.626,720.043,432.479z"
						/>
					<path style="fill:#130045;" d="M714.327,433.714c0.651-0.153,1.109-0.752,1.164-1.403c0.053-0.629-0.34-1.258-0.881-1.557
						c-0.075-0.041-0.153-0.051-0.231-0.049c-0.188-0.085-0.388-0.143-0.601-0.129c-0.632,0.039-1.249,0.482-1.347,1.136
						c-0.055,0.368,0.039,0.741,0.236,1.048c0.02,0.063,0.026,0.129,0.053,0.189C712.992,433.542,713.701,433.861,714.327,433.714z"
						/>
					<path style="fill:#130045;" d="M700.075,435.732c0.652-0.153,1.109-0.752,1.164-1.403c0.053-0.629-0.34-1.258-0.881-1.557
						c-0.075-0.041-0.153-0.051-0.231-0.049c-0.188-0.085-0.388-0.143-0.601-0.129c-0.632,0.039-1.249,0.482-1.347,1.136
						c-0.055,0.368,0.039,0.741,0.236,1.048c0.02,0.063,0.026,0.129,0.053,0.189C698.741,435.56,699.45,435.879,700.075,435.732z"/>
					<path style="fill:#130045;" d="M696.211,436.943c0.652-0.153,1.109-0.752,1.164-1.403c0.053-0.629-0.34-1.258-0.881-1.557
						c-0.075-0.041-0.153-0.051-0.231-0.049c-0.188-0.085-0.388-0.143-0.601-0.13c-0.632,0.039-1.249,0.482-1.347,1.136
						c-0.055,0.368,0.039,0.741,0.236,1.048c0.02,0.063,0.026,0.129,0.053,0.189C694.877,436.771,695.586,437.09,696.211,436.943z"
						/>
					<path style="fill:#130045;" d="M692.329,437.379c0.652-0.153,1.109-0.752,1.164-1.403c0.053-0.629-0.34-1.258-0.881-1.557
						c-0.075-0.041-0.153-0.052-0.231-0.049c-0.188-0.085-0.388-0.143-0.601-0.129c-0.632,0.039-1.249,0.482-1.347,1.136
						c-0.055,0.368,0.039,0.741,0.236,1.048c0.02,0.063,0.026,0.129,0.053,0.189C690.995,437.207,691.704,437.526,692.329,437.379z"
						/>
				</g>
			</g>
			<path style="fill:#2E7BD5;" d="M646.29,186.246c-0.22,0.28-0.35,0.42-0.35,0.42c-1.66,5.2-2.83,11.31-3.65,17.67
				c-2.81,21.82-1.47,46.46-1.47,46.46c-28.41,12.06-63.71-15.02-63.71-15.02c1.66-6.99,9.24-15.34,15.02-20.89
				c4.93-4.74,6.86-18.54,4.01-24.75c-1.03-2.25-2.33-4.63-3.72-6.95c-4.28-7.23-9.32-13.83-9.32-13.83
				c-0.19-10.45,5.73-23.44,5.73-23.44l6.32-2.56l22.4-9.08l8.43-3.42c3.25,6.33,10.4,17.73,15.53,25.73
				c3.34,5.21,5.82,8.98,5.82,8.98C652.99,176.556,647.74,184.406,646.29,186.246z"/>
			<path style="fill:#130045;" d="M634.117,189.823c-3.983,4.295-14.427,3.962-18.207,4.822c-1.42,0.32-2.73,0.78-3.26,2.28
				c-0.45,1.26-0.17,2.68,0.35,3.87c2.81,6.47,10.98,7.17,17.07,6.63c3.65-0.32,7.25-1.14,10.68-2.45c0.52-0.2,1.03-0.41,1.54-0.64
				c0.82-6.36,1.99-12.47,3.65-17.67c0,0,0.13-0.14,0.35-0.42C639.98,188.306,637.435,186.246,634.117,189.823z"/>
			<path style="fill:#F6A850;" d="M625.98,130.856l-8.43,3.42l-22.4,9.08l-6.32,2.56c0,0-5.92,12.99-5.73,23.44
				c0,0,5.04,6.6,9.32,13.83c2.03-4.96,4.66-9.65,7.83-13.98c1.03-1.41,2.12-2.77,3.26-4.08c1.09-1.25,2.2-2.55,3.55-3.52
				c1.29-0.92,2.75-1.43,4.33-1.4c1.42,0.03,2.79,0.4,4.13,0.83c3.07,0.98,6.24,2.4,9.52,1.6c0.16-0.03,0.32-0.18,0.35-0.34
				c0.53-2.96,1.06-5.92,1.58-8.87c3.72,0.81,7.45,1.62,11.17,2.43c1.12,0.24,2.25,0.49,3.37,0.73
				C636.38,148.586,629.23,137.186,625.98,130.856z"/>
			<g>
				<path style="fill:#A33F59;" d="M621.78,159.196c-4.3-2.66-9.48-3.41-14.13-5.4c-3.071-1.317-5.898-3.19-8.327-5.485
					c-2.303-2.177-1.536-6.024,1.401-7.214l13.705-5.555c1.952-0.791,4.185-0.078,5.334,1.688c1.711,2.632,2.925,5.557,3.148,8.667
					C623.23,150.346,621.51,154.746,621.78,159.196z"/>
			</g>
			<g>
				<g>
					<g>
						<path style="fill:#A33F59;" d="M617.917,151.053l7.089-23.388l-15.244-4.621l-5.161,17.025
							c-1.285,4.24,1.11,8.719,5.35,10.005l6.252,1.895C616.93,152.189,617.697,151.779,617.917,151.053z"/>
						<path style="fill:#130045;" d="M618.076,150.257L618.076,150.257l6.708-22.129l-11.228-3.403
							c-1.388,1.904-2.528,4.175-3.296,6.708c-0.852,2.812-1.142,5.61-0.939,8.177C609.715,144.61,613.275,148.801,618.076,150.257z
							"/>
					</g>
					<g>
						<path style="fill:#A33F59;" d="M638.346,124.867c0.474-2.339,0.954-4.664,1.597-6.962c0.921-3.294,0.132-7.197-0.825-10.562
							c-0.609-2.142-1.532-4.194-2.848-5.988c-3.507-4.777-10.104-7.695-15.961-7.31c-8.198,0.54-11.415,7.534-11.697,14.712
							c-3.817-3.856-6.042,1.95-6.042,1.95c-2.225,5.806,3.524,7.753,3.524,7.753c-0.253,6.187,2.396,10.923,2.396,10.923
							c2.452,4.502,4.976,7.404,7.288,9.266c4.604,3.71,11.018,3.577,15.466-0.022c3.66-2.962,5.723-7.053,6.666-11.615
							C638.057,126.295,638.201,125.58,638.346,124.867z"/>
						<g>
							<path style="fill:#130045;" d="M644.506,105.313c-0.844-1.156-1.99-2.04-3.224-2.782c-0.229-1.324-0.7-2.616-1.394-3.761
								c-1.677-2.768-4.418-4.761-7.361-6.107c-7.214-3.3-15.864-2.931-23.063,0.402c-1.906,0.882-3.741,1.976-5.223,3.464
								c-1.413,1.418-2.47,3.161-3.273,4.995c-0.914,2.087-1.519,4.373-1.256,6.636c0.049,0.42,0.128,0.843,0.071,1.262
								c-0.061,0.45-0.273,0.862-0.449,1.28c-1.416,3.347-0.55,7.349,1.519,10.336c2.069,2.988,3.565,4.876,6.809,6.514
								c-0.295-1.335-0.3-2.17-0.649-3.658c-0.349-1.488-0.389-3.028-0.551-4.548c-0.032-0.3-0.071-0.608-0.214-0.874
								c-0.215-0.401-0.627-0.647-0.989-0.923c-1.28-0.974-2.083-2.547-2.122-4.155s0.689-3.217,1.921-4.251
								c0.676-0.567,1.56-0.974,2.428-0.817c1.266,0.229,2.033,1.534,2.388,2.77c0.575,2.005,0.508,4.188-0.191,6.153
								c-0.625,1.76-1.755,3.61-1.085,5.354c0.44,1.146,1.595,1.896,2.79,2.177c1.195,0.281,2.444,0.166,3.666,0.048
								c-1.273-0.128-2.219-1.43-2.215-2.709c0.004-1.279,0.787-2.46,1.805-3.234c0.474-0.36,1.02-0.67,1.31-1.19
								c0.501-0.898,0.043-2.017-0.482-2.901c-0.525-0.884-1.144-1.852-0.937-2.86c0.167-0.817,0.849-1.429,1.564-1.858
								c2.778-1.666,6.648-1.233,8.989,1.007c1.204,1.152,2.16,2.789,3.792,3.123c1.868,0.382,3.746-1.176,5.603-0.74
								c1.164,0.273,2.01,1.27,2.642,2.286c0.632,1.015,1.159,2.131,2.06,2.917c0.901,0.786,2.338,1.136,3.283,0.403
								c-0.819,0.058-1.53-0.89-1.243-1.66c0.216-0.579,0.813-0.903,1.328-1.243c1.715-1.133,2.936-2.987,3.3-5.01
								C646.217,109.136,645.719,106.972,644.506,105.313z"/>
						</g>
						<g>
							<path style="fill:#130045;" d="M623.016,121.029c0.262-1.066-0.096-2.112-0.802-2.335c-0.349-0.11-0.718,0.003-1.033,0.275
								c-0.04-0.018-0.082-0.032-0.121-0.053c-0.034-0.024-0.07-0.046-0.102-0.073c-0.027-0.022-0.054-0.045-0.08-0.069
								c-0.005-0.004-0.013-0.013-0.022-0.021c-0.017-0.019-0.04-0.045-0.048-0.055c-0.022-0.027-0.044-0.056-0.064-0.084
								c-0.021-0.028-0.04-0.058-0.059-0.088c-0.003-0.006-0.006-0.011-0.01-0.016c-0.027-0.059-0.056-0.116-0.078-0.176
								c-0.011-0.031-0.021-0.063-0.031-0.094c0-0.002-0.001-0.004-0.001-0.006c-0.014-0.068-0.022-0.138-0.026-0.208
								c0-0.006-0.001-0.012-0.001-0.018c0.003-0.033,0.005-0.065,0.009-0.098c0.036-0.294-0.172-0.612-0.482-0.643
								c-0.301-0.03-0.604,0.166-0.643,0.482c-0.108,0.881,0.38,1.755,1.134,2.183c-0.034,0.095-0.068,0.19-0.093,0.292
								c-0.262,1.067,0.097,2.112,0.802,2.334C621.969,122.78,622.754,122.096,623.016,121.029z"/>
							<path style="fill:#130045;" d="M619.19,128.048c-0.004,1.455,0.485,2.889,1.443,3.996c1.068,1.233,2.639,1.977,4.265,2.048
								c0.722,0.032,0.822-1.091,0.094-1.123c-2.576-0.113-4.687-2.222-4.68-4.826C620.315,127.423,619.192,127.321,619.19,128.048z
								"/>
							<path style="fill:#130045;" d="M618.288,113.38c0-0.076,5.019,2.055,6.94,2.873c0.339,0.144,0.402,0.594,0.12,0.831
								l-0.228,0.191c-0.419,0.352-1.019,0.386-1.475,0.083c-1.729-1.148-3.463-2.289-5.201-3.423
								C618.224,113.792,618.205,113.566,618.288,113.38z"/>
							<path style="fill:#130045;" d="M637.999,119.178c0.042-0.063-3.951-1.22-6.004-1.604c-0.362-0.068-0.664,0.271-0.561,0.625
								l0.083,0.286c0.154,0.526,0.634,0.886,1.182,0.887c2.075,0.004,2.786,0.162,4.861,0.182
								C637.823,119.557,637.965,119.379,637.999,119.178z"/>
							<path style="fill:#130045;" d="M635.369,122.584c0.112-0.274-0.003-0.635-0.294-0.747c-0.282-0.108-0.627-0.001-0.747,0.294
								c-0.031,0.077-0.071,0.149-0.111,0.222c-0.078,0.122-0.162,0.24-0.263,0.345c-0.008,0.009-0.017,0.018-0.026,0.026
								c-0.026,0.023-0.052,0.046-0.08,0.068c-0.067,0.054-0.137,0.105-0.209,0.152c-0.029,0.019-0.059,0.036-0.088,0.054
								c-0.007,0.004-0.015,0.008-0.023,0.012c-0.031,0.015-0.063,0.026-0.095,0.04c-0.148-0.399-0.405-0.7-0.745-0.808
								c-0.705-0.222-1.489,0.462-1.752,1.529c-0.262,1.067,0.097,2.111,0.802,2.334c0.705,0.222,1.489-0.461,1.751-1.529
								c0.032-0.129,0.053-0.257,0.067-0.384C634.359,123.947,635.051,123.362,635.369,122.584z"/>
						</g>
						<path style="fill:#130045;" d="M629.747,128.319c-0.062-0.518-0.305-1.001-0.484-1.487c-0.204-0.552-0.347-1.123-0.446-1.7
							c-0.198-1.161-0.169-2.329,0.044-3.47c0.058-0.313-0.241-0.616-0.524-0.654c-0.335-0.043-0.557,0.209-0.615,0.518
							c-0.358,1.915-0.174,3.925,0.511,5.78c0.264,0.714,0.713,1.532-0.091,2.008c-0.804,0.477-1.815,0.001-2.607-0.336
							c-0.689-0.293-1.078,0.801-0.391,1.094c1.031,0.438,2.154,0.848,3.231,0.444C629.268,130.18,629.867,129.326,629.747,128.319z
							"/>
					</g>
				</g>
			</g>
		</g>
		<g>
			<path style="fill:#FFFFFF;" d="M662.023,411.785c0,3.908-0.956,7.601-2.638,10.85c-0.28,0.577-0.61,1.138-0.94,1.682
				c-4.205,6.711-11.641,11.18-20.133,11.18c-2.688,0-5.26-0.445-7.667-1.27c-0.841-0.28-1.665-0.627-2.473-1.006
				c-1.352-0.627-2.622-1.401-3.826-2.276c-0.709-0.511-1.385-1.055-2.028-1.649c-4.749-4.337-7.717-10.586-7.717-17.511
				c0-4.188,1.088-8.112,2.984-11.509c0.313-0.561,0.643-1.121,1.006-1.649c3.215-4.815,8.162-8.393,13.95-9.844
				c0.693-0.181,1.418-0.313,2.143-0.429h0.016c1.171-0.181,2.391-0.28,3.611-0.28c9.761,0,18.154,5.903,21.782,14.329
				c0.28,0.66,0.544,1.336,0.742,2.012C661.611,406.739,662.023,409.213,662.023,411.785z"/>
			<path style="fill:#130045;" d="M662.026,411.788c0,3.9-0.96,7.6-2.64,10.85c-0.28,0.57-0.61,1.13-0.94,1.68
				c-4.21,6.71-11.64,11.18-20.13,11.18c-2.69,0-5.26-0.45-7.67-1.27c-0.84-0.28-1.67-0.63-2.47-1.01c-1.36-0.62-2.63-1.4-3.83-2.27
				c-0.71-0.51-1.39-1.06-2.03-1.65c-1.43-1.31-2.71-2.8-3.78-4.42c0.31,0.32,0.63,0.63,0.96,0.93c0.64,0.6,1.32,1.14,2.03,1.65
				c1.2,0.88,2.47,1.65,3.82,2.28c0.81,0.38,1.64,0.72,2.48,1c2.41,0.83,4.98,1.27,7.67,1.27c8.49,0,15.92-4.46,20.13-11.18
				c0.33-0.54,0.66-1.1,0.94-1.68c1.68-3.25,2.64-6.94,2.64-10.85c0-2.57-0.42-5.04-1.19-7.37c-0.2-0.67-0.46-1.35-0.74-2.01
				c-0.56-1.3-1.24-2.55-2.02-3.72c2.03,2.06,3.68,4.5,4.84,7.2c0.28,0.66,0.54,1.34,0.74,2.02
				C661.606,406.738,662.026,409.208,662.026,411.788z"/>
			<path style="fill:#130045;" d="M660.836,404.414c-0.198-0.676-0.462-1.352-0.742-2.012l-6.678,11.559h-16.637l-8.442-14.609
				l6.348-10.998c-0.726,0.115-1.451,0.247-2.143,0.429l-5.689,9.844h-8.261c-0.363,0.528-0.693,1.088-1.006,1.649h9.267
				l8.376,14.51l-8.376,14.51h-4.534c0.643,0.594,1.319,1.138,2.028,1.649h2.506l1.319,2.276c0.808,0.379,1.632,0.725,2.473,1.006
				l-2.309-4.007l8.442-14.609h16.637l5.029,8.706c0.33-0.544,0.659-1.105,0.94-1.682l-4.534-7.849L660.836,404.414z"/>
		</g>
	</g>
</g>
</svg>
